<?xml version="1.0" encoding="UTF-8" standalone="no"?>
<!-- Created with Inkscape (http://www.inkscape.org/) -->

<svg
   xmlns:dc="http://purl.org/dc/elements/1.1/"
   xmlns:cc="http://creativecommons.org/ns#"
   xmlns:rdf="http://www.w3.org/1999/02/22-rdf-syntax-ns#"
   xmlns:svg="http://www.w3.org/2000/svg"
   xmlns="http://www.w3.org/2000/svg"
   xmlns:sodipodi="http://sodipodi.sourceforge.net/DTD/sodipodi-0.dtd"
   xmlns:inkscape="http://www.inkscape.org/namespaces/inkscape"
   version="1.1"
   id="svg2"
   xml:space="preserve"
   width="2829.3333"
   height="2829.3333"
   viewBox="0 0 2829.3333 2829.3333"
   sodipodi:docname="fumigacion.svg"
   inkscape:version="0.92.5 (2060ec1f9f, 2020-04-08)"><metadata
     id="metadata8"><rdf:RDF><cc:Work
         rdf:about=""><dc:format>image/svg+xml</dc:format><dc:type
           rdf:resource="http://purl.org/dc/dcmitype/StillImage" /><dc:title></dc:title></cc:Work></rdf:RDF></metadata><defs
     id="defs6" /><sodipodi:namedview
     pagecolor="#ffffff"
     bordercolor="#666666"
     borderopacity="1"
     objecttolerance="10"
     gridtolerance="10"
     guidetolerance="10"
     inkscape:pageopacity="0"
     inkscape:pageshadow="2"
     inkscape:window-width="1366"
     inkscape:window-height="703"
     id="namedview4"
     showgrid="false"
     inkscape:zoom="0.17431779"
     inkscape:cx="1242.5212"
     inkscape:cy="1414.6666"
     inkscape:window-x="0"
     inkscape:window-y="0"
     inkscape:window-maximized="1"
     inkscape:current-layer="g10" /><g
     id="g10"
     inkscape:groupmode="layer"
     inkscape:label="ink_ext_XXXXXX"
     transform="matrix(1.3333333,0,0,-1.3333333,0,2829.3333)"><g
       id="g12"
       transform="scale(0.1)"><path
         d="m 2912.86,5165.7 c -245.95,4.8 -476.44,134.7 -620.11,332.6 -163.89,225.7 -169.38,513.9 -79.58,770.1 95.68,272.9 305.61,491 531.42,663.3 231.55,176.6 492.37,325.3 776.7,395.5 310.14,76.6 636.26,45.4 950.57,17.3 331.51,-29.6 663.02,-59.2 994.53,-88.8 331.51,-29.7 663.02,-59.3 994.53,-88.9 325.29,-29.1 651.38,-67.6 977.74,-81.7 294.67,-12.7 582.04,23.3 849.77,152 241.69,116.1 450.3,294.4 635.92,485.5 392.08,403.6 717.06,879.9 974.96,1378.8 174.49,337.5 316.39,692.1 424.99,1056.1 103.2,345.9 210.4,803.7 612.6,911.3 39.6,10.6 22.8,72.1 -16.9,61.4 -249.4,-66.7 -417.1,-282.5 -513,-511.4 -58,-138.4 -96.9,-283.3 -139,-427.1 -40.3,-137.4 -85.8,-273.3 -135.7,-407.5 -200.08,-538.6 -480.44,-1047.1 -823.74,-1507.6 -323.06,-433.3 -720.9,-896.2 -1253.48,-1064.3 -302.99,-95.6 -627.53,-68 -938.79,-40.4 -331.19,29.4 -662.34,59.2 -993.51,88.8 -331.51,29.6 -663.02,59.2 -994.53,88.9 -325.55,29.1 -651.44,65.5 -977.84,83.3 -306.36,16.7 -608.6,-8.3 -894.38,-126.3 -257.34,-106.2 -498.35,-267.2 -705.06,-453 -311.91,-280.3 -539.26,-697.8 -435.39,-1126 86.26,-355.6 436.23,-618.5 797.28,-625.6 41.1,-0.8 41.03,62.9 0,63.7 v 0"
         style="fill:#231f20;fill-opacity:1;fill-rule:nonzero;stroke:none"
         id="path14"
         inkscape:connector-curvature="0" /><path
         d="m 3008.8,5068.6 c 0,-185 -42.64,-335 -95.25,-335 -52.61,0 -95.26,150 -95.26,335 0,185.1 42.65,335.1 95.26,335.1 52.61,0 95.25,-150 95.25,-335.1"
         style="fill:#231f20;fill-opacity:1;fill-rule:nonzero;stroke:none"
         id="path16"
         inkscape:connector-curvature="0" /><path
         d="m 5051.84,5068.6 c 0,-185 -150,-335 -335.03,-335 -185.03,0 -335.03,150 -335.03,335 0,185.1 150,335.1 335.03,335.1 185.03,0 335.03,-150 335.03,-335.1"
         style="fill:#231f20;fill-opacity:1;fill-rule:nonzero;stroke:none"
         id="path18"
         inkscape:connector-curvature="0" /><path
         d="M 4844.91,8606.2 H 2785.45 V 4989.8 h 2059.46 v 3616.4"
         style="fill:#f89a39;fill-opacity:1;fill-rule:nonzero;stroke:none"
         id="path20"
         inkscape:connector-curvature="0" /><path
         d="m 4030.32,5068.6 c 0,-185 -150,-335 -335.03,-335 -185.04,0 -335.03,150 -335.03,335 0,185.1 149.99,335.1 335.03,335.1 185.03,0 335.03,-150 335.03,-335.1"
         style="fill:#231f20;fill-opacity:1;fill-rule:nonzero;stroke:none"
         id="path22"
         inkscape:connector-curvature="0" /><path
         d="M 4844.91,8891.9 H 2785.45 v -285.7 h 2059.46 v 285.7"
         style="fill:#231f20;fill-opacity:1;fill-rule:nonzero;stroke:none"
         id="path24"
         inkscape:connector-curvature="0" /><path
         d="M 4421.19,9139.4 H 3209.16 v -291.8 h 1212.03 v 291.8"
         style="fill:#231f20;fill-opacity:1;fill-rule:nonzero;stroke:none"
         id="path26"
         inkscape:connector-curvature="0" /><path
         d="m 3902.22,10255.1 h -87.04 V 8606.2 h 87.04 v 1648.9"
         style="fill:#231f20;fill-opacity:1;fill-rule:nonzero;stroke:none"
         id="path28"
         inkscape:connector-curvature="0" /><path
         d="m 4844.91,10255.1 h -87.04 V 8606.2 h 87.04 v 1648.9"
         style="fill:#231f20;fill-opacity:1;fill-rule:nonzero;stroke:none"
         id="path30"
         inkscape:connector-curvature="0" /><path
         d="M 4844.91,10169.7 H 3783.98 v 302.1 h 1060.93 v -302.1"
         style="fill:#f89a39;fill-opacity:1;fill-rule:nonzero;stroke:none"
         id="path32"
         inkscape:connector-curvature="0" /><path
         d="m 3819.03,8712.7 c -44.22,-1181.7 -61.45,-2364.4 -51.71,-3546.9 0.34,-41 64.04,-41.1 63.7,0 -9.74,1182.5 7.49,2365.2 51.71,3546.9 1.53,41.1 -62.17,40.9 -63.7,0 v 0"
         style="fill:#231f20;fill-opacity:1;fill-rule:nonzero;stroke:none"
         id="path34"
         inkscape:connector-curvature="0" /><path
         d="m 7940.23,11127.1 171.89,-5560.7 c 0,0 -392.85,-114.9 -827.61,25.5 l -447.44,3547.5 -146.38,1911.3 1249.54,76.4"
         style="fill:#bfeafb;fill-opacity:1;fill-rule:nonzero;stroke:none"
         id="path36"
         inkscape:connector-curvature="0" /><path
         d="M 7108.12,11137.3 6265.6,6383.8 c 0,0 -744.24,-314.7 -1023.05,-47.1 l 183.66,4985.8 1681.91,-185.2"
         style="fill:#bfeafb;fill-opacity:1;fill-rule:nonzero;stroke:none"
         id="path38"
         inkscape:connector-curvature="0" /><path
         d="m 8055.15,16231.8 c 27.67,-242.7 56.08,-498.4 -42.03,-729.7 -40.68,-96 -119.57,-229.3 -234.58,-239.9 -102.07,-9.3 -203.62,55.9 -266.22,130.1 -26.52,31.4 -71.34,-13.9 -45.04,-45.1 72.59,-86 167.38,-133.5 278.74,-147.8 130.01,-16.7 224.92,98.5 285.03,197.7 151.19,249.5 119.26,558.8 87.8,834.7 -4.6,40.3 -68.35,40.7 -63.7,0 v 0"
         style="fill:#231f20;fill-opacity:1;fill-rule:nonzero;stroke:none"
         id="path40"
         inkscape:connector-curvature="0" /><path
         d="m 7263.9,15203.9 c 12.81,141.9 2.35,283.4 -30.09,422.1 -9.36,40 -70.77,23 -61.43,-16.9 31.21,-133.4 40.13,-268.8 27.82,-405.2 -3.69,-40.9 60.04,-40.6 63.7,0 v 0"
         style="fill:#231f20;fill-opacity:1;fill-rule:nonzero;stroke:none"
         id="path42"
         inkscape:connector-curvature="0" /><g
         id="g44"
         transform="scale(1.01889)"><path
           d="m 7970.42,16178.2 c -111.38,121.8 -274.07,113.5 -425.22,96 -83.63,-9.7 -166.99,-21.9 -250.54,-32.1 -68.39,-8.4 -134.24,-30.1 -190.88,-69.9 -123.65,-86.8 -189.07,-248.8 -217.81,-391.6 -34.51,-171.4 -25.59,-347.7 -11.81,-521.3 88.7,-135.7 189.87,-234.8 255.79,-113.7 34.68,63.7 -38.85,176 -51.77,239.5 -27.24,133.9 -18.08,284 -0.57,418.6 40.58,27.3 98.16,-1.1 124.63,-42.2 26.46,-41.1 33.39,-91.5 51.91,-136.8 25.63,-62.6 96.89,-121.3 154.1,-60.9 19.76,20.9 13.87,37.8 48.36,39.8 38.53,2.3 67.78,-38.9 106.89,-39.7 59.76,-1.2 92.28,78.8 151.21,88.8 45.39,7.7 85.96,-28.9 131.22,-37.4 55.39,-10.4 111.44,24.1 143.4,70.5 31.98,46.4 44.85,103 57.09,158 14.48,65.1 40.92,125.2 14.14,188.2 -22.62,53.1 -50.99,103.3 -90.14,146.2"
           style="fill:#fab966;fill-opacity:1;fill-rule:nonzero;stroke:none"
           id="path46"
           inkscape:connector-curvature="0" /></g><path
         d="m 7876.33,15079.7 c 0,0 -178.54,-428.4 -696.68,134.3 0,0 -1165.49,-946.6 -1455.49,-2108.9 -187.57,-751.8 -297.95,-1782.6 -297.95,-1782.6 35.86,-20.1 2465.61,-1246.9 2514.02,-195.4 18.57,403.3 95.13,748.1 190.67,1083.2 232.37,815.1 547,1251 376.94,1952.5 -112.45,463.9 -344.49,762.4 -631.51,916.9"
         style="fill:#bfeafb;fill-opacity:1;fill-rule:nonzero;stroke:none"
         id="path48"
         inkscape:connector-curvature="0" /><path
         d="m 7414.87,15727.5 c 0,0 386.53,-81 690.22,3.4 8.49,-23.5 -4.96,-35.9 25.81,-41.3 0,0 -14.92,-310.6 -268.64,-482 -253.71,-171.3 -567.35,322.3 -567.35,322.3 0,0 118.26,209.9 107.53,281.5 -10.72,71.5 12.43,-83.9 12.43,-83.9"
         style="fill:#231f20;fill-opacity:1;fill-rule:nonzero;stroke:none"
         id="path50"
         inkscape:connector-curvature="0" /><path
         d="m 8947.19,4867.7 c -73.95,19.3 -335.77,90.4 -492.59,172.6 -60.11,31.5 -152.16,97.8 -209.7,151 l -132.78,1878.6 c 0,0 -456.72,36.5 -1017.84,-130.6 0,0 132.44,-1862 210.81,-1999.8 1.85,-31 7.95,-51.7 19.52,-54.9 59.2,-16.1 234.8,-126.1 707.72,-238.9 472.89,-112.8 669.21,-72.6 815.24,-60 146.04,12.7 173.57,262.7 99.62,282"
         style="fill:#231f20;fill-opacity:1;fill-rule:nonzero;stroke:none"
         id="path52"
         inkscape:connector-curvature="0" /><path
         d="M 5269.56,7069.9 5150.51,5329.3 c -76.68,-215.4 -703.7,-242.4 -685.33,-634.9 5.07,-108.3 534.75,-158.7 832.21,-126 307.41,33.7 801.86,239.2 844.12,390.7 5.45,19.6 6.36,40.2 4.02,61.4 l 251.88,1884.9 c 0,0 -724.67,302 -1127.85,164.5"
         style="fill:#231f20;fill-opacity:1;fill-rule:nonzero;stroke:none"
         id="path54"
         inkscape:connector-curvature="0" /><path
         d="m 4324.43,10880.3 c -32.18,-148.3 -64.48,-297.5 -70.56,-449.1 -6.08,-151.6 9.56,-195.4 74.41,-369.1 29.35,-78.6 138.15,-185.6 200.54,-241.7 35.31,-31.8 60.78,-80.9 140.93,-78.4 95.88,3 111.97,24.9 105.41,116.8 -7.27,101.9 -28.95,204.9 -43.25,306.1 -5.23,37.1 -2.87,86.8 33.22,96.9 32.48,9.1 60.27,-24.2 75.86,-54.1 23.68,-45.5 42.53,-93.5 56.15,-142.9 5.42,-19.7 10.43,-40.4 23.79,-55.8 13.36,-15.5 38.2,-23.3 54.54,-11 7.06,5.3 11.43,13.3 15.25,21.3 147.46,308.7 -64.11,894.3 -425.96,946.5 -43.47,6.3 -88.56,9.5 -130.69,-2.9 -42.14,-12.4 -100.33,-39.7 -109.64,-82.6"
         style="fill:#231f20;fill-opacity:1;fill-rule:nonzero;stroke:none"
         id="path56"
         inkscape:connector-curvature="0" /><path
         d="m 7313.65,14963.4 c 1.37,5.5 2.72,11.1 3.99,16.5 2.68,11.5 4.98,22.8 7.06,34.4 -18.76,8.6 -37.87,16.3 -57.04,23.1 -455.84,162.1 -942.47,-117.9 -1284.68,-402.1 -838.34,-696.2 -1548.09,-1543.4 -1681.85,-2663.4 -26.31,-220.4 -40.65,-446.2 -43.07,-671.4 -1.73,-161.6 2.68,-322.9 13.2,-481.6 1.78,-26.9 4,-54.7 16.46,-78.6 3.81,-7.3 8.6,-13.9 13.84,-20.1 70.4,-19.8 138.22,-33.8 212.17,-38.2 133.65,-8 264.08,8 393.82,32 18.34,52.4 23.97,111.4 33.43,165.2 4.38,25 8.97,50.1 13.92,75 3.16,15.9 6.41,31.9 9.85,47.7 14.75,68.3 30.22,136.5 46.36,204.5 108.35,433.5 217.28,858 358.57,1281.2 14.14,42.3 28.35,84.9 48.72,124.6 30.8,60 74.84,112 118.63,163.4 321.7,376.9 652,746.4 990.57,1108.3 286.25,305.9 679.62,659.5 786.05,1079.5"
         style="fill:#bfeafb;fill-opacity:1;fill-rule:nonzero;stroke:none"
         id="path58"
         inkscape:connector-curvature="0" /><path
         d="m 10081.4,11072.8 c 120.1,-92.8 240.9,-186.1 375.1,-256.8 134.3,-70.6 180.6,-75.3 365.3,-91.4 83.6,-7.3 227,44.9 304.5,77.1 43.8,18.3 99.1,20.1 131.3,93.6 38.5,87.9 25.6,111.8 -60.1,145.4 -95.1,37.2 -197.5,61.9 -295,92.5 -35.7,11.2 -79.6,34.7 -73.2,71.6 5.8,33.3 47.8,44.1 81.5,45.3 51.2,1.8 102.6,-1.8 153.1,-10.7 20.1,-3.6 41,-8 60.7,-2.6 19.6,5.5 37.4,24.5 33.3,44.5 -1.7,8.7 -7.1,16.1 -12.7,23 -215.3,265.8 -835.1,326.5 -1037.7,22.3 -24.4,-36.6 -46.6,-75.9 -53.5,-119.3 -6.9,-43.4 -7.3,-107.7 27.4,-134.5"
         style="fill:#231f20;fill-opacity:1;fill-rule:nonzero;stroke:none"
         id="path60"
         inkscape:connector-curvature="0" /><path
         d="m 10347.4,11629 c -20.7,14.7 -41.3,29.6 -61.7,44.8 -13,9.7 -26,19.5 -38.8,29.4 -55.3,42.7 -110.3,85.9 -164.8,129.8 -344.79,284.1 -681.25,565 -1002.6,874.4 -32.17,31 -64.46,62.1 -91.57,97.6 -40.95,53.6 -69,115.7 -96.52,177.3 -167.39,374.9 -327.26,753.1 -480.35,1134.1 h -989.44 c 270.72,-1031.2 730.87,-2006.1 1664.21,-2595.5 187.62,-118.4 385.33,-228.4 587.63,-327.4 145.17,-71 292.69,-136.4 440.54,-195.1 25,-10 51.1,-19.9 78,-18.9 8.3,0.3 16.3,1.8 24.1,3.8 48.2,55.1 90,110.3 125.8,175.1 64.6,117.3 106.2,242 140.3,369.4 -39.4,39.1 -90.3,69.5 -134.8,101.2"
         style="fill:#bfeafb;fill-opacity:1;fill-rule:nonzero;stroke:none"
         id="path62"
         inkscape:connector-curvature="0" /><path
         d="m 5702.91,12922.3 c 488.66,262.5 899.38,652.9 1168.96,1138.9 19.94,36 -35.08,68.1 -55,32.2 -264.61,-477.1 -666.43,-858.4 -1146.11,-1116.1 -36.2,-19.4 -4.03,-74.4 32.15,-55 v 0"
         style="fill:#231f20;fill-opacity:1;fill-rule:nonzero;stroke:none"
         id="path64"
         inkscape:connector-curvature="0" /><path
         d="m 8213.17,12373 c 68.81,180.4 138.5,360.6 189.78,547 68.11,247.5 106.74,502.8 143.33,756.5 5.79,40.2 -55.58,57.5 -61.42,16.9 -36.13,-250.4 -74.94,-501.7 -140.59,-746.4 -50.97,-190 -122.5,-373.4 -192.53,-557 -14.66,-38.5 46.94,-54.9 61.43,-17 v 0"
         style="fill:#231f20;fill-opacity:1;fill-rule:nonzero;stroke:none"
         id="path66"
         inkscape:connector-curvature="0" /><g
         id="g68"
         transform="scale(1.02269)"><path
           d="m 6811.61,15602.8 c 40.43,260.8 138,533.6 397.23,649.5 75.83,33.9 160.09,44.8 243.15,46 117.28,1.7 236.55,-15.6 342.57,-65.8 106.02,-50.2 197.96,-135.5 241.84,-244.3 25.05,-62.2 33.56,-129.2 35.86,-195.7 1.66,-47.8 15.24,-136.4 -19.78,-175.6 -19.02,-21.4 -51.81,-21.4 -80.33,-19.5 -108.66,7.3 -217.01,19.1 -324.68,35.4 -63.02,9.6 -129.44,20.3 -188.86,-2.7 -98.23,-38.1 -177.96,-150.7 -208.27,-251.6 -41.79,-139.1 -44.73,-234.1 -40.07,-379.2 4.65,-145.1 88.06,-325.4 282.06,-406.1 -57.21,-50.9 -241.81,-80.2 -318.36,-81.6 -117.78,-2.1 -250.18,12.3 -325.07,103.2 -95.27,115.7 -82.55,273 -90.15,410.9 -10.1,183.4 24.72,395.6 52.86,577.1"
           style="fill:#bfeafb;fill-opacity:1;fill-rule:nonzero;stroke:none"
           id="path70"
           inkscape:connector-curvature="0" /></g><path
         d="m 7691.9,14909.9 c 94.43,-621.8 -15.6,-1253.4 -110.85,-1868 -98.72,-637 -187.56,-1273.9 -319.81,-1905.2 -62.12,-296.5 -129.09,-592.8 -213.76,-883.8 -79.66,-273.8 -174.62,-542.9 -263.42,-813.8 -12.84,-39.2 48.68,-55.8 61.42,-16.9 88.81,270.9 183.19,540.1 263.42,813.7 87.1,297.1 154.33,600.2 217.78,903 132.16,630.9 219.97,1267.7 318.62,1904.3 96.25,621 203.4,1255.6 108.03,1883.6 -6.16,40.5 -67.53,23.2 -61.43,-16.9 v 0"
         style="fill:#231f20;fill-opacity:1;fill-rule:nonzero;stroke:none"
         id="path72"
         inkscape:connector-curvature="0" /><path
         d="m 7660.39,15240.8 c 6.02,-13.6 13.03,-26.7 20.62,-39.4 11.61,-19.5 13.42,-17.5 34.09,-22.5 3.69,-0.9 7.56,-2.2 9.88,-5.2 4.6,-5.8 0.94,-14.2 0.03,-21.6 -1.31,-10.8 3.72,-21.2 9.02,-30.7 22.88,-40.8 52.09,-79.4 81.31,-115.9 63.57,-79.3 159.99,-127.1 262.41,-108.3 84.45,15.4 171.46,73.9 209.78,203.4 4.53,15.3 2.19,31.8 0.28,47.6 -10.05,83.1 -60.79,134.9 -114.12,195.1 -16.08,18.1 -32.34,36.1 -48.75,54 -17.58,19.1 -20.76,21.3 -46.47,20.1 -2.87,-0.2 -5.91,-0.3 -8.45,1.1 -2.91,1.5 -4.58,4.7 -6.05,7.6 -16.65,33.3 -24.06,63.4 -55.48,85.9 -25.47,18.3 -55.86,28.9 -85.34,38.7 -19.59,6.5 -39.56,13 -60.19,13.6 -32.48,1.1 -63.77,-12.5 -91.42,-29.5 -52.91,-32.8 -97.61,-80.9 -118.91,-139.4 -20.63,-56.6 -13.61,-106.5 7.76,-154.6"
         style="fill:#231f20;fill-opacity:1;fill-rule:nonzero;stroke:none"
         id="path74"
         inkscape:connector-curvature="0" /><path
         d="m 8229.39,15200.9 c 49.7,-71.9 20.13,-178.4 -66.04,-238 -86.17,-59.5 -196.3,-49.6 -246,22.3 -49.69,71.9 -20.13,178.5 66.04,238.1 86.17,59.5 196.31,49.5 246,-22.4"
         style="fill:#bfeafb;fill-opacity:1;fill-rule:nonzero;stroke:none"
         id="path76"
         inkscape:connector-curvature="0" /><path
         d="m 6312.08,11391.1 c 502.02,-119.5 1035.01,-80.3 1513.32,113.9 37.54,15.3 21.14,76.9 -16.94,61.4 -468.06,-190 -987.83,-231 -1479.45,-113.9 -39.94,9.6 -56.88,-51.9 -16.93,-61.4 v 0"
         style="fill:#231f20;fill-opacity:1;fill-rule:nonzero;stroke:none"
         id="path78"
         inkscape:connector-curvature="0" /><path
         d="m 7574.14,11256.1 c -147.76,-31.9 -297.35,-48.6 -448.49,-50.5 -41.04,-0.5 -41.09,-64.2 0,-63.7 156.7,2 312.24,19.7 465.42,52.8 40.15,8.6 23.12,70 -16.93,61.4 v 0"
         style="fill:#231f20;fill-opacity:1;fill-rule:nonzero;stroke:none"
         id="path80"
         inkscape:connector-curvature="0" /><path
         d="m 10365.4,10749 258.6,-50.5 272,477.3 832.3,-145.3 174.7,384.6 -1099.6,70.9 -438,-737"
         style="fill:#f89a39;fill-opacity:1;fill-rule:nonzero;stroke:none"
         id="path82"
         inkscape:connector-curvature="0" /><path
         d="m 11728.3,11030.5 2022.4,-862.7 272.9,1318.2 -2120.6,-70.9 -174.7,-384.6"
         style="fill:#bfeafb;fill-opacity:1;fill-rule:nonzero;stroke:none"
         id="path84"
         inkscape:connector-curvature="0" /><path
         d="m 15677.8,10167.8 c 0,-634.1 -514,-1148.2 -1148.1,-1148.2 -634.1,0 -1148.2,514.1 -1148.2,1148.2 0,634.1 514.1,1148.1 1148.2,1148.1 634.1,0 1148.1,-514 1148.1,-1148.1"
         style="fill:#bfeafb;fill-opacity:1;fill-rule:nonzero;stroke:none"
         id="path86"
         inkscape:connector-curvature="0" /><g
         id="g88"
         transform="scale(1.0595)"><path
           d="m 16300,11128 c 0,-745.2 -573.9,-1349.4 -1282.1,-1349.4 -708.1,0 -1282,604.2 -1282,1349.4 0,745.3 573.9,1349.4 1282,1349.4 708.2,0 1282.1,-604.1 1282.1,-1349.4"
           style="fill:#bfeafb;fill-opacity:1;fill-rule:nonzero;stroke:none"
           id="path90"
           inkscape:connector-curvature="0" /></g><g
         id="g92"
         transform="scale(1.17128)"><path
           d="m 16300,9134.05 c 0,-541.37 -438.8,-980.21 -980.2,-980.21 -541.4,0 -980.3,438.84 -980.3,980.21 0,541.4 438.9,980.25 980.3,980.25 541.4,0 980.2,-438.85 980.2,-980.25"
           style="fill:#bfeafb;fill-opacity:1;fill-rule:nonzero;stroke:none"
           id="path94"
           inkscape:connector-curvature="0" /></g><g
         id="g96"
         transform="scale(1.07003)"><path
           d="m 16300,9087.5 c 0,-592.6 -480.4,-1072.96 -1073,-1072.96 -592.6,0 -1073,480.36 -1073,1072.96 0,592.6 480.4,1073.1 1073,1073.1 592.6,0 1073,-480.5 1073,-1073.1"
           style="fill:#bfeafb;fill-opacity:1;fill-rule:nonzero;stroke:none"
           id="path98"
           inkscape:connector-curvature="0" /></g><g
         id="g100"
         transform="scale(1.02718)"><path
           d="m 16300,8550.85 c 0,-617.32 -500.4,-1117.71 -1117.7,-1117.71 -617.3,0 -1117.8,500.39 -1117.8,1117.71 0,617.32 500.5,1117.82 1117.8,1117.82 617.3,0 1117.7,-500.5 1117.7,-1117.82"
           style="fill:#bfeafb;fill-opacity:1;fill-rule:nonzero;stroke:none"
           id="path102"
           inkscape:connector-curvature="0" /></g><path
         d="m 14856.3,9108.4 c 0,-339.9 -275.6,-615.5 -615.5,-615.5 -340,0 -615.5,275.6 -615.5,615.5 0,340 275.5,615.5 615.5,615.5 339.9,0 615.5,-275.5 615.5,-615.5"
         style="fill:#bfeafb;fill-opacity:1;fill-rule:nonzero;stroke:none"
         id="path104"
         inkscape:connector-curvature="0" /><g
         id="g106"
         transform="scale(1.09261)"><path
           d="m 16300,7584.84 c 0,-311.09 -252.2,-563.33 -563.3,-563.33 -311.2,0 -563.4,252.24 -563.4,563.33 0,311.18 252.2,563.33 563.4,563.33 311.1,0 563.3,-252.15 563.3,-563.33"
           style="fill:#bfeafb;fill-opacity:1;fill-rule:nonzero;stroke:none"
           id="path108"
           inkscape:connector-curvature="0" /></g><g
         id="g110"
         transform="scale(1.15507)"><path
           d="m 16300,7940.1 c 0,-422.74 -342.7,-765.4 -765.3,-765.4 -422.8,0 -765.4,342.66 -765.4,765.4 0,422.66 342.6,765.32 765.4,765.32 422.6,0 765.3,-342.66 765.3,-765.32"
           style="fill:#bfeafb;fill-opacity:1;fill-rule:nonzero;stroke:none"
           id="path112"
           inkscape:connector-curvature="0" /></g><g
         id="g114"
         transform="scale(1.10084)"><path
           d="m 16300,10757.9 c 0,-308.8 -250.4,-559.2 -559.2,-559.2 -308.8,0 -559.1,250.4 -559.1,559.2 0,308.7 250.3,559.1 559.1,559.1 308.8,0 559.2,-250.4 559.2,-559.1"
           style="fill:#bfeafb;fill-opacity:1;fill-rule:nonzero;stroke:none"
           id="path116"
           inkscape:connector-curvature="0" /></g><path
         d="m 15062.3,11530.3 c 0,-339.9 -275.5,-615.5 -615.5,-615.5 -339.9,0 -615.5,275.6 -615.5,615.5 0,340 275.6,615.6 615.5,615.6 340,0 615.5,-275.6 615.5,-615.6"
         style="fill:#bfeafb;fill-opacity:1;fill-rule:nonzero;stroke:none"
         id="path118"
         inkscape:connector-curvature="0" /></g></g></svg>