<?xml version="1.0" encoding="UTF-8" standalone="no"?>
<!-- Created with Inkscape (http://www.inkscape.org/) -->

<svg
   xmlns:dc="http://purl.org/dc/elements/1.1/"
   xmlns:cc="http://creativecommons.org/ns#"
   xmlns:rdf="http://www.w3.org/1999/02/22-rdf-syntax-ns#"
   xmlns:svg="http://www.w3.org/2000/svg"
   xmlns="http://www.w3.org/2000/svg"
   xmlns:sodipodi="http://sodipodi.sourceforge.net/DTD/sodipodi-0.dtd"
   xmlns:inkscape="http://www.inkscape.org/namespaces/inkscape"
   version="1.1"
   id="svg2"
   xml:space="preserve"
   width="1847.1467"
   height="1281.2933"
   viewBox="0 0 1847.1467 1281.2933"
   sodipodi:docname="pest.svg"
   inkscape:version="0.92.5 (2060ec1f9f, 2020-04-08)"><metadata
     id="metadata8"><rdf:RDF><cc:Work
         rdf:about=""><dc:format>image/svg+xml</dc:format><dc:type
           rdf:resource="http://purl.org/dc/dcmitype/StillImage" /><dc:title></dc:title></cc:Work></rdf:RDF></metadata><defs
     id="defs6" /><sodipodi:namedview
     pagecolor="#ffffff"
     bordercolor="#666666"
     borderopacity="1"
     objecttolerance="10"
     gridtolerance="10"
     guidetolerance="10"
     inkscape:pageopacity="0"
     inkscape:pageshadow="2"
     inkscape:window-width="1366"
     inkscape:window-height="703"
     id="namedview4"
     showgrid="false"
     showguides="true"
     inkscape:guide-bbox="true"
     inkscape:zoom="0.38492601"
     inkscape:cx="853.8624"
     inkscape:cy="649.46441"
     inkscape:window-x="0"
     inkscape:window-y="0"
     inkscape:window-maximized="1"
     inkscape:current-layer="g12"><sodipodi:guide
       position="1189.8391,1278.1677"
       orientation="0,1"
       id="guide929"
       inkscape:locked="false" /></sodipodi:namedview><g
     id="g10"
     inkscape:groupmode="layer"
     inkscape:label="ink_ext_XXXXXX"
     transform="matrix(1.3333333,0,0,-1.3333333,0,1281.2933)"><g
       id="g12"
       transform="scale(0.1)"><path
         d="m 2744.1556,4617.8216 c -6.94,-117.51 -34.54,-236.93 -101.48,-335.53 -72.08,-106.19 -222.32,-197.07 -353.64,-167.76 -15.22,3.41 -13.94,25.35 0,29.41 85.84,25.16 171.22,38.05 234.07,110.95 28.27,32.81 53.12,72.03 67.49,113.13 30.17,86.11 50.42,176.12 53.49,267.37 6,179.34 -46.88,371.31 -232.86,437.73 -5.31,1.9 -6.53,10.71 0,11.98 260.85,51 344.92,-264.7 332.93,-467.28 z m -448.79,1162.76 c 110.47,-18.28 184.11,-105.37 213.06,-209.88 23.19,-83.74 -7.7,-228.5 -92.1,-266.43 -5.46,-2.45 -11.39,1.5 -10.02,7.7 10.45,47.77 39.95,91.11 42.13,140.61 1.83,41.84 -13.07,78.05 -27.25,116.62 -27.53,75.04 -79.09,140.61 -134.22,196.96 -6.46,6.61 0.26,15.77 8.4,14.42 z m 2110.9,-1206.84 c -69.32,80.48 -124.32,168.27 -176.37,260.53 -27.42,48.61 -43.88,145.99 -104.84,159.47 -5.12,1.13 -45.67,24.8 -58.55,28.62 -53.96,15.97 -110.7,25.65 -165.41,39.01 -58.4,14.26 -116.29,30.62 -174.95,43.69 -45.9,10.23 -102.64,32.26 -149.47,32.26 -29.33,0 -48.26,10.16 -78.21,6.09 -40.1,-5.48 -79.92,-12.15 -119.68,-19.62 -91.52,-17.23 -181.79,-42.14 -270.8,-69.36 -83.72,-25.62 -164.69,-57.16 -243.66,-94.94 -12.2,-5.82 -23.17,-11.83 -33.66,-17.97 -21.27,49.16 -47.69,95.8 -78.73,137.95 115.55,50.32 237.99,104.31 343.91,170.7 63.52,39.81 117.23,89.89 169.08,143.45 25.17,26.02 82.54,67.95 73.27,109.79 1.44,1.48 2.92,2.94 4.34,4.44 112.48,118.41 195.63,254.27 273.82,394.41 11.91,21.38 14.78,34.12 15.17,58.76 1.25,80.76 1.34,161.47 -0.82,242.19 -3.01,111.12 9.2,218.99 -0.59,331.49 -5.92,67.84 -19.11,154.09 -57.57,212.12 -9.2,13.92 -32.31,5.41 -27.49,-11.58 20.1,-70.9 17.17,-145.24 23.09,-217.83 7.96,-97.87 22.33,-199.04 25.89,-296.22 2.86,-77.84 -0.77,-156.74 -2.14,-234.64 -0.26,-15.27 -0.61,-30.54 -1.01,-45.77 0.07,6.14 -0.87,-2.55 -6.93,-13.52 -66.12,-119.61 -171.61,-241.29 -272.62,-333.06 -85.88,-78.07 -164.13,-171.9 -264.79,-232.39 -120.92,-72.62 -232.09,-148.84 -361.34,-205.97 -13.5,13.02 -27.53,25.37 -42.12,36.76 113.65,39.43 227.28,136.99 312.71,214.06 49.12,44.33 85.14,94.44 105.07,157.83 13.99,44.46 31.22,93.45 42.76,142.45 29.72,83.41 41.39,174.64 49.37,266.17 14.37,164.87 17.45,374.25 -50.89,528.93 -45.51,103.03 -103.34,194.19 -173.62,282.15 -73.08,91.47 -163.94,202.28 -272.46,252.06 -5.65,2.58 -14.23,-3.31 -9.6,-9.59 61.99,-84.6 146.41,-152.46 213.64,-233.46 75.44,-90.92 153.1,-200.17 183.09,-316 17.71,-68.3 11.22,-152.14 15.56,-222.68 5.78,-94.05 4.19,-187.43 5.36,-281.41 1.09,-87.08 9.51,-165.59 -18.97,-249.6 -25.38,-74.82 -106.39,-134.83 -163.15,-186.11 -72.4,-65.43 -149.3,-125.9 -224.3,-188.3 -29.04,-24.2 -79.28,-61.59 -102.27,-102.49 -12.89,6.09 -26.04,11.56 -39.52,16.31 16.84,11.5 32.56,25.11 46.83,41.17 62.41,70.18 70.7,170.76 50.98,258.83 -26.22,117.01 -119.06,227.83 -232.25,277.15 -1.9,1.98 -4.32,3.7 -7.33,4.99 -45.1,19.35 -90.54,25.39 -134.49,21.1 -29.25,-2.03 -58.59,-8.71 -87.45,-21.1 -2.36,-1 -4.08,-2.42 -5.74,-3.88 -112.45,-49.5 -203.35,-162.04 -233.85,-278.26 -21.84,-83.34 -10.51,-181.02 43.83,-249.78 15.76,-19.95 33.92,-36.3 53.63,-49.87 -13.38,-4.75 -26.52,-10.11 -39.33,-16.22 -23.18,40.44 -73.58,76.28 -102.11,102.05 -72.37,65.35 -151.17,123.68 -224.29,188.3 -58.07,51.32 -135.73,111.51 -163.15,186.11 -30.56,83.11 -19.26,163.22 -18.98,249.6 0.33,94.02 0.29,187.34 5.37,281.41 3.93,72.03 0.63,152.35 15.55,222.68 49.08,231.62 265.92,371.02 396.74,549.46 4.62,6.28 -3.95,12.17 -9.6,9.59 -102.31,-46.94 -183.17,-147.2 -254.95,-230.94 -78.94,-92.04 -142.2,-192.52 -191.13,-303.27 -68.73,-155.57 -63.81,-363.1 -50.89,-528.93 6.63,-84.94 29.45,-168.21 42.45,-252.43 3.92,-25.31 12.5,-49.24 24.1,-71.88 6.08,-20.33 12.22,-40.38 17.45,-59.86 17.63,-65.4 48.96,-117.6 95.99,-165.81 49.95,-51.2 108.85,-94.06 168.43,-133.15 51.46,-33.77 103.66,-74.93 162.14,-97.16 -14.77,-11.61 -29.01,-24 -42.64,-37.33 -232.55,100.57 -433.39,246.79 -612.55,425.05 -102.47,101.92 -212.341,216.16 -283.75901,342.13 -17.168,30.31 -9.301,5.64 -10.168,45.99 -1.68,78.18 -1.832,156.39 -2.379,234.55 -0.652,96.75 17.844,199.01 24.477,296.59 5.3,78.09 2.812,159.35 24.386,235.44 4.821,16.99 -18.281,25.5 -27.48,11.58 -38.922,-58.7 -44.508,-136.17 -56.438,-203.7 -19.132,-108.35 -1.879,-214.39 -1.16,-321.93 0.571,-84.14 -2.617,-168.33 -1.48,-252.53 0.328,-25.17 0.894,-40.03 12.742,-61.82 78.969,-145.24 173.48401,-278.63 283.25901,-396.19 -0.81,-1.57 -1.66,-3.19 -2.16,-4.95 -10.69,-38.16 34.07,-69.33 56.34,-94.24 49.76,-55.65 103.93,-104.6 164.96,-147.57 107.88,-75.96 243.27,-132.07 365.63,-184.99 -30.75,-42.25 -57.02,-88.92 -78.25,-138.17 -5.32,3.14 -10.67,6.29 -16.47,9.42 -75.61,40.97 -158.08,70.55 -239.61,97.08 -82.19,26.76 -166,48.58 -250.29,67.67 -41.38,9.33 -83.265,16.49 -125.151,23.12 -16.008,2.53 -32.082,4.78 -48.164,6.76 -15.77,1.99 -52.20001,-10.16 -61.51601,-8.33 -27.859,5.52 -69.957,-12.85 -97.707,-18.24 -58.922,-11.47 -116.941,-27.55 -175.102,-42.37 -56.585,-14.44 -113.39,-28.02 -170.285,-41.35 -33.484,-7.82 -87.582,-11.48 -113.254,-38.64 -5.851,-6.19 -29.234,-10.36 -36.976,-23.58 -20.988,-35.84 -34.555,-79.22 -54.52,-116.55 -53.55,-100.2 -113.9098,-195.82 -188.12469,-281.98 -9.55469,-11.09 5.25782,-26.28 16.16799,-16.16 59.5742,55.24 113.1717,121.22 156.6877,189.89 22.258,35.17 42.344,71.71 62.176,108.3 15.027,27.76 28.207,76.15 60.449,86.23 156.582,48.9 328.777,68.38 486.39,128.46 28.551,10.88 66.25,9.14 104.77001,2.99 27.074,-49.56 41.191,-60.82 96.008,-73.52 67.031,-15.48 134.661,-27.7 202.171,-40.72 72.62,-13.99 145.18,-31.48 216.43,-51.34 29.77,-8.28 101.54,-22.96 146.19,-48.05 -13.61,-44.66 -23.21,-90.37 -28.44,-135.92 -92.6,14.83 -186.41,30.97 -278.66,33.42 -58.68,1.56 -111.52,10.86 -167.97,-9.74 -50.98,-18.58 -102.479,-32.87 -152.002,-55.51 -187.77801,-85.85 -319.49301,-260.01 -497.71101,-360.36 -10.977,-6.19 -14.184,-18.14 -12.11,-29.74 6.281,-35.33 -17.125,-68.81 -26.527,-101.53 -10.883,-37.81 -15.621,-77.7 -17.301,-116.86 -3.574,-84.66 -7.848,-169.25 -13.258,-253.85 -1.097,-17.02 22.16,-17.37 27.574,-3.71 28.727,72.47 32.5,145.44 45.02,221.5 5.957,36.06 13.438,72.1 20.527,107.98 5.481,27.66 23.563,56.58 23.563,84.99 0,30.63 -13.485,48.68 20.461,66.77 28.359,15.12 55.519,30.14 82.394,47.86 50.457,33.31 96.985,74.98 142.383,114.64 54.34,47.44 113.672,90.31 174.70701,128.61 32.024,20.08 66.098,36.57 101.137,50.62 11.163,4.45 21.723,7.23 32.083,9.03 4.95,-9.43 14.51,-16.1 28.77,-15.19 141.71,9.08 317.64,-73.19 463.56,-46.72 8.24,-140.88 55.1,-292.87 151.15,-389.26 67.03,-67.28 128.33,-122.81 218.05,-159.67 46.45,-19.1 94.59,-32.01 143.54,-40.41 6.09,-5.88 14.32,-9.99 24.91,-10.56 27.99,-1.55 56.52,-1.78 85.26,-0.85 31.43,-1.17 62.97,-0.89 94.45,0.85 10.95,0.6 19.34,4.94 25.5,11.13 135.75,23.21 265.59,80.62 352.94,189.52 94.43,117.76 147.7,252.48 158.04,399.51 146.13,-27.14 322.63,55.54 464.73,46.46 13.88,-0.89 23.34,5.37 28.4,14.38 10.38,-1.68 21.03,-4.25 32.46,-8.22 35.58,-12.4 68.78,-31.63 101.13,-50.62 61.8,-36.29 120.68,-81.67 174.71,-128.61 46.1,-40.05 93.37,-78.22 142.39,-114.64 25.54,-18.99 54.03,-33.65 82.39,-47.86 34.49,-17.3 20.46,-36.54 20.46,-66.77 0,-27.26 16.49,-58.84 23.56,-84.99 9.42,-34.94 13.9,-72.42 20.53,-107.98 14.13,-76.04 16.09,-148.6 45.02,-221.5 5.41,-13.66 28.67,-13.31 27.58,3.71 -5.39,84.55 -11.33,169.15 -13.27,253.85 -0.72,30.91 -5.67,60.4 -11.49,90.77 -7.48,38.83 -39.29,88.5 -32.34,127.62 2.08,11.6 -1.12,23.55 -12.1,29.74 -178.94,100.78 -312.95,266.98 -497.72,360.36 -90.11,45.55 -188.15,72.53 -288.6,68.74 -102.96,-3.87 -206.73,-21.29 -309.57,-37.22 -4.68,45.86 -14.02,91.76 -27.5,136.54 39.68,21.11 98.66,33.35 124.73,41.72 69.92,22.54 142.78,37.5 214.7,52.03 68.73,13.9 137.51,27.64 206.16,42.17 62.63,13.24 82.68,20.92 113.42,76.74 30.93,7.01 63.93,13.05 78.05,8.21 94.76,-32.37 187.95,-62.46 285.11,-87.39 73.27,-18.81 156.32,-29.1 225.43,-50.7 50.11,-15.66 86.13,-129.22 112.02,-173.16 45.57,-77.31 104.49,-151.22 170.26,-212.17 10.91,-10.12 25.72,5.07 16.16,16.16"
         style="fill:#028900;fill-opacity:1;fill-rule:nonzero;stroke:none"
         id="path14"
         inkscape:connector-curvature="0" /><path
         d="m 3393.12,8519.71 c 3.98,-3.79 -0.07,-11.12 -5.44,-9.34 -106.78,35.45 -210.51,65.1 -324.2,66.17 -115.93,1.08 -225.59,-14.31 -338.89,-37.37 -7.12,-1.44 -12.02,8.38 -5.13,12.17 193.29,106.09 502.78,131.19 673.66,-31.63 z m -1328.22,5.57 c -20.12,111.97 88.59,180.92 189.5,184.65 109.53,4.04 212.56,-42.67 271.18,-133.53 1.26,-1.97 -1.44,-3.61 -3.02,-2.33 -64.28,52.38 -174.82,65.18 -253.5,62.76 -89,-2.74 -154.69,-34.59 -201.28,-111.93 -0.66,-1.06 -2.64,-1.02 -2.88,0.38 z m 1666.79,63.36 c 45.44,90.69 171.59,124.43 256.09,66.67 18.99,-12.96 12.4,-42.99 -11.81,-43.65 -79.15,-2.05 -162.17,-1.75 -237,-32.53 -5.71,-2.37 -9.51,5.02 -7.28,9.51 z m -217.9,979.4 c -51.55,-27.56 -111.12,-39.15 -166.3,-58.39 -38.3,-13.35 -100.3,-15.73 -130.54,-45.95 -10.11,-10.09 -9.64,-22.99 -11.62,-36.62 -4.31,-29.3 -34.62,-62.52 -49.75,-88.15 -22.98,-38.75 -47.19,-76.95 -61.09,-119.98 -29.33,-90.84 -69.94,-183.16 -54.01,-280.62 8.81,-53.69 19.8,-106.98 28.9,-160.62 5.1,-30.19 6.57,-60.84 8.75,-91.33 -80.23,1.15 -164.92,-9.17 -244.93,-27.74 -46.78,104.17 -145.42,195.51 -232.02,258.31 -106.96,77.48 -222.07,126.41 -346.94,163.66 -28.05,8.35 -55.88,17.18 -84.18,24.64 -3.12,16.14 -6.69,32.2 -9.77,48.36 -12,63.42 -7.08,129.56 -23.49,192.77 -14.42,55.52 -21.16,116.69 -17.32,173.86 1.09,16.22 -20.9,16.37 -26.1,3.52 -27.09,-66.78 -11.91,-178.85 -3.92,-248.42 7.68,-66.86 19.96,-133.24 29.58,-200.13 1.34,-9.21 11.04,-17.23 19.5,-19.5 95.24,-25.41 184.03,-71.85 272.66,-113.65 79.68,-37.56 147.82,-87.28 221.84,-134.25 62.86,-39.91 105.11,-100.63 141.18,-164.69 -5.11,-1.49 -10.32,-2.84 -15.36,-4.39 -38.44,-11.87 -87.74,-28.4 -120.37,-57.19 -41.73,123.85 -192.8,197.87 -327.16,206.05 -86.84,5.28 -183.63,-16.18 -252.69,-71 -28.86,-22.91 -48.24,-48.09 -61.11,-75.59 -25.41,25.13 -49.17,52.09 -78.33,74.2 -50.06,37.88 -141.12,43.81 -200.68,52.59 -69.36,10.25 -139.44,13.91 -209.05,21.89 -41.29,4.76 -80.26,16.3 -120.42,22.34 -27.26,4.11 -40.54,4.02 -61.34,-15.05 -19.29,-17.72 -6.89,-45.33 14.11,-53.47 17.64,-6.82 28.79,-4.86 47.23,-1.54 39.19,7 80.71,-3.08 120.42,-2.86 72.71,0.46 148.05,-10.65 219.77,-21.4 73.37,-11 152.72,-24.78 207.16,-78.77 15.68,-15.53 30.25,-30.41 45.89,-43.26 -6.53,-29.23 -8.14,-60.82 -7.31,-94.83 0.83,-33.72 2.25,-64.81 8.03,-93.84 -16.19,-12.96 -31.13,-28.21 -46.61,-44.26 -53.38,-55.46 -134.57,-66.52 -207.16,-78.79 -72.41,-12.22 -146.5,-17.81 -219.77,-21.38 -30.5,-1.49 -60.3,-2.36 -90.77,-5.68 -28.65,-3.14 -49.29,11.94 -76.88,1.27 -21,-8.11 -33.4,-35.76 -14.11,-53.47 39.88,-36.58 95.88,-3.6 143.15,3.3 79.94,11.69 161.12,14.48 241.23,25.02 63.61,8.37 129.24,19.72 188.45,45.39 39.83,17.3 67.85,49.72 97.61,80.45 10.95,-23.95 27.18,-46.46 51.72,-67.82 67.42,-58.68 162.23,-78.02 249.25,-77.31 143.12,1.22 295.06,79.28 336.45,209.18 30.14,-27.92 76.04,-44.03 113.1,-56.63 8.44,-2.92 17.13,-5.41 25.71,-8.03 -33.1,-59.6 -71.84,-117.27 -127.6,-155.4 -71.86,-49.15 -142.19,-100.28 -221.68,-136.52 -94.11,-42.84 -186.06,-93.53 -286.56,-120.37 -8.46,-2.27 -18.16,-10.29 -19.5,-19.5 -9.62,-66.93 -21.64,-133.24 -29.58,-200.12 -8.2,-69.35 -23.08,-181.85 3.92,-248.45 5.2,-12.8 27.19,-12.67 26.1,3.54 -3.58,52.87 3.38,106.63 13.43,158.68 13.33,68.75 12.83,140.26 27.38,207.95 3.47,16.03 6.96,32.22 9.89,48.38 28.29,7.27 56.27,15.67 84.06,24.66 125.35,40.53 237.35,86.91 346.94,163.62 86.7,60.76 185.03,154.08 231.8,257.85 78.97,-17.97 161.95,-25.96 241.36,-26.92 -11.18,-76.15 -16.8,-154.4 -30.15,-229.88 -8.14,-45.7 -9.12,-85.23 -1.33,-130.82 9.09,-53.34 33.88,-98.84 45.87,-151.1 10.34,-44.85 32.66,-83.62 55.96,-122.91 10.92,-18.43 21.7,-36.49 34.09,-54.01 19.5,-27.55 18.19,-56.94 33.08,-82.37 18.1,-30.93 81.7,-36.54 111.9,-44.77 61.78,-16.75 133.9,-36.19 190.03,-66.16 10.79,-5.73 18.76,9.01 9.35,16.02 -81.36,60.51 -154.97,102.96 -251.1,138.23 -39.09,14.35 -58.05,85.54 -78.84,121.42 -25.32,43.67 -51.68,86.52 -76.98,130.12 -24.93,42.98 -12.36,112.67 0.78,156.95 12.39,41.69 12.68,92.48 19.42,135.82 8.87,57.24 17.62,123.91 6.32,184.05 88.05,3.01 203.49,15.71 279.66,61.91 -1.79,-15.88 -3.84,-31.11 -5.27,-44.83 -6.07,-57.79 -2.84,-108.66 8.9,-165.44 15.18,-73.39 51.91,-96.05 115.79,-123.84 44.59,-19.39 82.06,-44.8 121.59,-72.95 41.78,-29.71 90.13,-91.16 141.37,-105.27 116.61,-32.07 211.8,-116.3 340.27,-111.19 18.23,0.72 19.31,23.45 4.03,29.88 -54.84,23.04 -113.51,35.43 -168.45,58.93 -24.17,10.31 -47.25,23.07 -70.11,35.95 -29.76,16.73 -40.67,36.82 -63.25,59.42 -34.81,34.82 -91.11,52.37 -134.39,73.25 -45.51,21.99 -92.19,42.47 -138.52,62.59 -76.52,33.2 -90.79,96.9 -98.51,178.41 -5.63,59.49 0.44,113.42 -5.48,165.58 2.03,2.48 4.03,4.97 5.89,7.54 9.54,1.31 17.91,7.42 21.27,19.53 35.04,-35.37 98.16,-61.89 128.49,-79.71 81.52,-47.88 167.66,-96.34 263.38,-104.32 85.3,-7.11 160.62,23.74 223.06,80.78 20.87,19.04 44.03,45.98 64.28,76.33 6.8,10.16 13.22,20.72 19.16,31.52 9.02,16.38 16.81,33.27 22.68,50.13 -6.04,16.71 -14.07,33.31 -23.3,49.38 -6.17,10.8 -12.84,21.38 -19.8,31.55 -16.87,24.7 -35.21,47.27 -51.42,65.86 -58.31,66.81 -147.22,99.93 -234.66,92.77 -91.97,-7.52 -167.1,-52.44 -246.52,-95.26 -33.27,-17.94 -106.83,-48.71 -145.39,-88.59 -3.32,11.69 -11.35,17.73 -20.55,19.2 -1.57,2.23 -3.18,4.38 -4.89,6.5 6.68,46.57 3.71,95.24 3.19,147.57 -0.52,47.49 12.67,99.02 30.17,143.13 13.28,33.5 37.8,40.98 68.95,54.47 89.12,38.72 182.65,75.76 264.09,129.05 23.12,15.12 30.92,40.23 55.53,56.48 21.61,14.2 45.27,25.74 68.32,37.21 59.8,29.8 125.66,41.75 186.78,67.41 15.28,6.41 14.2,29.16 -4.03,29.88 -57.39,2.3 -111.76,-14.04 -164.99,-34.4 -48.77,-18.59 -111.95,-74.93 -163.67,-75.23 -37.26,-0.2 -83.35,-49.46 -108.35,-73.26 -43.1,-41.03 -100.52,-76.76 -154.57,-101.41 -62.24,-28.38 -101.22,-42.26 -123.32,-112.02 -16.43,-51.83 -19.57,-107.84 -15.78,-161.6 1.45,-19.94 4.81,-42.23 7.69,-65.24 -76.45,45.17 -191.97,56.47 -279.71,60.53 10.61,56.79 2.8,118.95 -4.47,174.08 -5.91,45.15 -16.16,90.21 -19.36,135.68 -4.05,57.42 -28.26,110.37 -2.3,168.08 17.34,38.48 45.16,75.11 66.4,111.76 22.43,38.67 39.83,92.73 67.08,127.24 21.3,26.98 107.26,46.57 137.46,59.14 52.78,21.99 90.81,58.04 135.98,91.64 9.41,7 1.44,21.75 -9.35,16.01"
         style="fill:#028900;fill-opacity:1;fill-rule:nonzero;stroke:none"
         id="path16"
         inkscape:connector-curvature="0" /><path
         d="m 6687.41,7757.35 c -13.86,31.69 -25.58,64.06 -33.31,97.75 -28.03,122.11 -26.09,248.09 -54.99,370.4 -0.46,2.09 0.37,3.62 1.7,4.43 -21.77,50.39 -43.34,100.87 -64.75,151.39 -26.96,63.5 -34.7,133.13 -59.27,197.92 -3.55,1.48 -4.55,5.67 -3.4,9.2 -0.02,0.11 -0.06,0.22 -0.08,0.31 -3.28,7.94 8.76,11.78 13.04,5.5 0.33,-0.46 0.59,-0.96 0.92,-1.44 29.31,-2.31 59.42,-1.86 88.97,-3.95 -14.61,7.48 -29.36,14.7 -44.27,21.46 51.39,3.72 103.09,3.34 154.54,7.45 104.09,8.19 178.14,111.69 239.85,184.11 85.32,100.12 140.32,200.51 134.47,333.65 -1.45,33.32 -11.81,64.49 -7.53,98.09 4.4,34.86 -1.24,65.56 -10.89,98.95 -25.36,87.75 -78.85,177.56 -81.82,269.81 -0.33,10.09 -14.16,9.56 -15.32,0 -15.93,-132.79 -11.3,-264.23 61.97,-381.24 81.77,-130.59 -27.46,-288.55 -113.2,-386.94 -39.42,-45.24 -82.07,-95.11 -133.04,-127.69 -30.85,-19.72 -84.43,-17.37 -119.44,-20.16 -73.17,-5.85 -145.26,-12.67 -216.44,-26.05 5.78,2.36 11.62,4.71 17.27,7.07 78.49,32.33 154.45,76.7 188.39,157.97 35.52,84.9 -24.12,191.97 -88.61,244.34 -55.69,45.27 -125.59,64.53 -196.23,65.99 44.45,60.62 74.05,136.86 105.08,200.18 22.77,46.5 45.78,93.31 83.67,129.51 16.36,15.61 22.04,48.32 -0.37,60.69 -9.62,5.31 -21.58,5.8 -31.16,0 -56.93,-34.44 -83.6,-142.84 -108.56,-201.11 -28.51,-66.43 -60.71,-128.86 -95.77,-190.82 -5.01,-0.44 -9.96,-1.01 -14.91,-1.6 -4.85,0.57 -9.7,1.08 -14.52,1.48 -35.11,62.01 -67.31,124.47 -95.85,190.94 -25.04,58.27 -51.64,166.67 -108.58,201.11 -9.6,5.8 -21.53,5.31 -31.18,0 -21.89,-12.07 -14.2,-35.41 -5.77,-53.67 9.25,-20.13 34.55,-39.58 47.39,-58.34 16.55,-24.19 28.71,-52.02 41.71,-78.19 31.48,-63.51 60.93,-139.94 105.52,-200.68 -66.77,-2.06 -131.96,-20.75 -190.04,-60.38 -75.21,-51.23 -124.05,-160.81 -95.28,-249.45 25.49,-78.61 109.39,-123.89 179.97,-154.41 7.71,-3.34 15.62,-6.65 23.54,-10 -64.77,12.27 -130.38,19.27 -196.69,24.11 -40.19,2.95 -83.68,3.88 -122.49,15.4 -57.76,17.19 -109.38,91.51 -147.58,133.76 -72.33,79.95 -209.45,271.75 -117.06,381.94 85.98,102.5 80.66,262.99 65.82,386.24 -1.15,9.56 -14.99,10.09 -15.31,0 -2.67,-84.05 -48.91,-167.9 -74.74,-247.03 -23.6,-72.39 -18.08,-144.86 -25.5,-219.82 -13,-131.75 53.95,-235.53 134.47,-333.65 61.67,-75.15 135.92,-172.79 239.86,-184.11 54.89,-6 110.34,-3.93 165.36,-8.34 -14.58,-6.52 -28.93,-13.37 -43.08,-20.42 28.65,1.9 57.84,1.57 86.27,3.8 0.33,0.48 0.58,0.98 0.91,1.44 4.31,6.28 16.32,2.44 13.07,-5.5 -0.04,-0.09 -0.09,-0.2 -0.11,-0.31 1.16,-3.53 0.17,-7.76 -3.44,-9.2 -28.28,-73.34 -39.27,-151.02 -70.07,-223.51 -17.84,-41.99 -35.58,-84.07 -53.58,-126 1.14,-0.87 1.81,-2.31 1.37,-4.23 -28.7,-121.64 -21.49,-250.43 -54.99,-370.4 -7.83,-28.1 -17.72,-55.24 -28.86,-81.84 -20.96,-68.99 -4.51,-128.98 -11.98,-199.26 -4.34,-40.32 -12.08,-79.26 -22.29,-117.67 30.89,33.42 49.52,75.15 63.81,121.63 23.24,75.48 28.62,155.93 42.74,233.35 0.83,4.61 1.85,9.19 2.77,13.77 1.85,-18.85 4.12,-37.74 6.84,-56.67 10.36,-71.43 26.37,-140.99 46.21,-209.29 -22.28,-40.25 -44.46,-80.49 -64.06,-121.53 -19.1,-40.03 -38.73,-78.16 -44.1,-122.83 -7.31,-60.74 -36.3,-118.59 -47.16,-179.32 -15.34,-85.95 -60.56,-188 -16.27,-273.86 52.56,-101.91 124.21,-215.28 212.66,-290.34 6.72,-5.68 15.88,1.3 12.01,9.25 -44.7,92.53 -138.81,177.73 -146.12,281.42 -7.42,105.62 -42.08,196.96 -7.83,302.56 33.31,102.6 90.05,193.74 133.44,292.86 54.51,-156.76 125.6,-308.06 192.17,-460.94 6.7,-15.35 13.36,-30.75 19.95,-46.15 5.47,-12.83 10.9,-25.66 16.25,-38.5 5.51,13.41 11.13,26.78 16.73,40.11 6.46,15.4 13,30.74 19.57,46.07 65.94,153.58 136.35,305.4 191.28,462.77 16.63,-41.93 31.45,-89.61 54.58,-126.09 31.1,-49.04 56.09,-94.14 74.31,-149.69 18.69,-57.26 30.03,-108.85 21.81,-169.62 -5.89,-43.89 -18.66,-88.92 -21.73,-132.81 -1.18,-16.27 2.14,-39.74 -2.08,-55.32 -9.26,-34.29 -34.11,-68.48 -53.65,-97.73 -33.05,-49.45 -65.8,-95.04 -91.86,-148.94 -3.82,-7.95 5.32,-14.93 12.02,-9.25 45.59,38.65 76.98,85.51 113.98,131.86 32.41,40.62 65.68,94.48 89.2,140.11 46.3,89.75 17.89,179.5 -1.93,271.77 -10.57,49.34 -21.83,97.11 -38.08,144.97 -18.25,53.63 -24.13,105.36 -48.45,157.42 -22.82,48.8 -49.22,96.4 -75.53,144.06 20.03,67.54 36.63,136.34 48.09,206.98 2.48,15.22 4.49,30.44 6.26,45.67 8.4,-39.09 15.68,-78.47 21.76,-118.3 10.98,-72.12 25.9,-144.36 62.2,-208.39 9.71,-17.08 22.47,-31.46 37.04,-44.11 -13.4,42.91 -23.79,87.22 -24.04,130.72 -0.45,64.18 7.35,122.15 -7.57,183.35"
         style="fill:#028900;fill-opacity:1;fill-rule:nonzero;stroke:none"
         id="path18"
         inkscape:connector-curvature="0" /><path
         d="m 6827.66,8042.39 c -16.94,57.59 -36.61,115.38 -67.58,167.14 -18.33,30.63 -41.98,56.41 -63.09,84.42 -70.9,62.04 -121.39,140.01 -171.96,219.72 19.63,-56.37 31.68,-117.98 54.45,-170.5 38.06,-87.7 73.72,-176.83 115.11,-263.04 39.35,-81.89 86.01,-152.94 143.89,-222.92 15.87,-19.15 30.41,-38.24 41.7,-58.75 -14.65,81.92 -29.05,164.2 -52.52,243.93"
         style="fill:#028900;fill-opacity:1;fill-rule:nonzero;stroke:none"
         id="path20"
         inkscape:connector-curvature="0" /><path
         d="m 6777.75,8229.6 c 21.46,-35.93 37.45,-76 49.53,-109.42 34.37,-95.16 53.74,-193.9 72.45,-293.01 13.96,-26.48 30.43,-51.48 52.22,-74.56 32.69,-34.55 73.34,-61.54 104.84,-96.75 8.25,-9.2 15.97,-18.71 23.43,-28.36 -12.88,28.29 -24.96,57 -32.79,87.63 -17.38,68.02 -23.73,137.95 -43.29,205.43 -15.08,26.54 -29.61,54.27 -44.21,84.12 -47.16,96.48 -105.58,161.7 -182.18,224.92"
         style="fill:#028900;fill-opacity:1;fill-rule:nonzero;stroke:none"
         id="path22"
         inkscape:connector-curvature="0" /><path
         d="m 5597.41,7697.07 c -68.16,-63.04 -114.15,-124.43 -154.94,-200.95 -3.06,-15.14 -4.74,-30.46 -4.51,-46.03 1.39,-87.48 17.88,-172.4 -9.47,-257.97 -8.64,-27.1 -18.72,-53.74 -29.06,-80.24 65.95,2.93 128.99,61.21 178.23,117.36 68.18,169.96 62.02,374.25 91.55,551.53 -20.07,-30.78 -44.89,-58.81 -71.8,-83.7"
         style="fill:#028900;fill-opacity:1;fill-rule:nonzero;stroke:none"
         id="path24"
         inkscape:connector-curvature="0" /><path
         d="m 5865.91,7634.7 c -1.66,20.19 -4.76,43.52 -4.78,66.43 -8.18,-16.58 -16.51,-33.07 -24.94,-49.55 -9.5,-57.36 -34.55,-110.87 -51.83,-166.32 -10.02,-32.38 -17.6,-65.12 -24.66,-98 17.47,10.21 35.38,20.38 53.61,31.07 11.89,7 22.26,14.96 31.89,23.45 15.74,63.39 25.77,130.12 20.71,192.92"
         style="fill:#028900;fill-opacity:1;fill-rule:nonzero;stroke:none"
         id="path26"
         inkscape:connector-curvature="0" /><path
         d="m 5750.17,8120.18 c 13.3,34.42 29.61,75.83 51.69,112.47 -78.37,-62.91 -138.74,-131.45 -184.37,-227.97 -14.38,-30.43 -29.04,-58.58 -44.38,-85.41 -20.77,-74.52 -22.9,-154.31 -50.32,-226.46 -8.18,-21.52 -18.45,-43.12 -28.95,-64.91 12.88,16.25 27.08,31.06 42.67,43.71 61.13,49.65 106.96,99.94 142.49,163.24 17.74,96.33 35.79,193.93 71.17,285.33"
         style="fill:#028900;fill-opacity:1;fill-rule:nonzero;stroke:none"
         id="path28"
         inkscape:connector-curvature="0" /><path
         d="m 6009.16,8368.21 c 22.1,48.1 30.96,102.48 47.61,153.01 -0.48,-0.53 -0.96,-0.99 -1.4,-1.49 -0.02,-0.87 -0.22,-1.74 -0.82,-2.68 -50.91,-80.3 -102.11,-162.74 -175.06,-224.66 -24.31,-32.21 -51.76,-61.5 -70.74,-98.21 -27.94,-54.04 -48.66,-111.21 -64.02,-170.05 -11.2,-42.78 -20.94,-86.21 -30.01,-129.82 -1.4,-8.59 -3.22,-17.01 -5.41,-25.34 -4.96,-24.78 -9.54,-49.63 -13.95,-74.48 14.69,27.84 35.13,52.77 56.56,77.84 58.84,68.86 103.36,146.29 140.56,228.61 40.05,88.56 76.13,178.94 116.68,267.27"
         style="fill:#028900;fill-opacity:1;fill-rule:nonzero;stroke:none"
         id="path30"
         inkscape:connector-curvature="0" /><path
         d="m 7019.07,7894.77 c 18.14,-57.61 21.04,-117.99 40.41,-176.32 27.24,-82.15 77.33,-154.62 97.39,-239.18 21.82,-91.88 -6.45,-186.42 20.92,-279.21 8.36,-28.32 17.7,-55.94 26.68,-83.55 1.86,0.44 3.65,0.67 5.5,1.13 136.98,34.33 114.61,250.98 106.29,351.97 -1.82,21.88 -4.35,43.7 -7.42,65.42 -44.49,72.01 -100.48,133.86 -164.31,198.47 -51.89,52.55 -90.88,104.1 -125.46,161.27"
         style="fill:#028900;fill-opacity:1;fill-rule:nonzero;stroke:none"
         id="path32"
         inkscape:connector-curvature="0" /><path
         d="m 6707.25,7997.02 c -1.04,1.92 -0.83,3.77 0.05,5.21 -23.25,41.47 -43.62,84.45 -63.1,128.18 -7.81,17.56 -15.35,35.28 -23.09,52.9 27.65,-105.58 20.77,-217.99 50.37,-323.42 30.77,-109.55 88.99,-210.96 127.23,-318.31 0.3,-0.79 -0.16,-1.4 -0.74,-1.84 3.05,-8.33 5.99,-16.74 8.82,-25.23 -3.63,37.45 -5.2,75.67 -6.19,115.05 -1.69,67.29 -2.57,136.79 -18.84,202.45 -15.25,61.47 -45.12,110.03 -74.51,165.01"
         style="fill:#028900;fill-opacity:1;fill-rule:nonzero;stroke:none"
         id="path34"
         inkscape:connector-curvature="0" /><path
         d="m 6741.78,7647.85 c -8.68,16.41 -17.35,32.86 -25.79,49.39 -0.44,-21.55 -3.3,-43.39 -4.43,-62.54 -4.17,-67.25 6.56,-137.56 23.62,-204.29 25.66,-18.71 55.11,-33.55 83.46,-48.19 -9.09,42.17 -18.82,84.06 -32.91,125.33 -15.84,46.47 -35.37,91.99 -43.95,140.3"
         style="fill:#028900;fill-opacity:1;fill-rule:nonzero;stroke:none"
         id="path36"
         inkscape:connector-curvature="0" /><path
         d="m 7139.46,7450.09 c -1.54,24.52 -6.62,47.64 -13.76,69.98 -12.59,25.48 -26.43,50.35 -43.62,73.12 -34.19,45.26 -77.38,77.36 -116.3,117.75 -21.44,22.26 -41.16,46.03 -57.8,71.51 31.85,-187.25 22.54,-404.65 103.33,-580.22 45.79,-51.37 96.04,-92.83 164.15,-89.65 -13.22,33.59 -25.24,67.53 -32.58,102.72 -16.83,80.21 1.58,154.78 -3.42,234.79"
         style="fill:#028900;fill-opacity:1;fill-rule:nonzero;stroke:none"
         id="path38"
         inkscape:connector-curvature="0" /><path
         d="m 5420.55,7479.27 c 20.15,84.89 75.3,155.28 97.4,239.18 15.31,58.05 20.92,117.4 39.25,173.73 -34.5,-56.11 -73.69,-106.63 -124.31,-158.68 -69.24,-71.29 -129.66,-137.91 -176.04,-218.49 -6.89,-54.76 -9.79,-109.97 -9.55,-165.13 0.24,-64.12 3.82,-143.92 51.83,-193.02 24.45,-25 49.28,-38.3 73.88,-43.06 9.3,28.36 18.79,56.83 26.64,86.26 24.82,92.95 -0.83,187.64 20.9,279.21"
         style="fill:#028900;fill-opacity:1;fill-rule:nonzero;stroke:none"
         id="path40"
         inkscape:connector-curvature="0" /><path
         d="m 5738.67,8207.18 c 11.18,10.16 22.79,20.11 35.23,29.66 50.93,39.07 104.63,73.97 147.05,122.91 36.8,42.45 71.18,88.1 104.07,134.11 -34.51,-22.82 -77.14,-34.34 -117.51,-47.36 -80.26,-25.85 -153.84,-61.54 -229.05,-95.92 -83.69,-84.64 -156.71,-179.87 -219.53,-280.88 7.45,3.49 14.89,6.85 22.3,10.08 90.64,39.27 174.54,73.41 257.44,127.4"
         style="fill:#028900;fill-opacity:1;fill-rule:nonzero;stroke:none"
         id="path42"
         inkscape:connector-curvature="0" /><path
         d="m 5779.46,7539.74 c -0.59,0.44 -1.03,1.05 -0.74,1.84 24.1,67.65 58.58,134.14 87.3,201.89 2.03,7.11 4.75,13.88 8.37,20.17 15.84,39.32 29.28,79.11 37.02,119.9 18.49,97.12 18.53,200.12 43.82,296.24 -10.31,-23.58 -20.79,-47.12 -31.51,-70.51 -16.76,-36.56 -34.3,-72.2 -53.75,-106.75 1.05,-1.47 1.31,-3.45 0.21,-5.5 -32.56,-60.91 -66.68,-115.25 -78.6,-184.85 -11.58,-67.52 -13.65,-135.34 -15.22,-203.67 -0.7,-31.36 -2.18,-61.95 -4.99,-91.96 2.59,7.78 5.29,15.52 8.09,23.2"
         style="fill:#028900;fill-opacity:1;fill-rule:nonzero;stroke:none"
         id="path44"
         inkscape:connector-curvature="0" /><path
         d="m 6514.77,8540.58 c 4.55,-5.92 9.64,-11.4 15.3,-16.44 0.72,-0.39 1.44,-0.92 2.02,-1.73 0.09,-0.15 0.24,-0.32 0.36,-0.5 58.87,-49.73 170.3,-57.72 236.63,-82.02 16.48,-6.02 33.51,-12.22 50.64,-18.8 -61.96,54.6 -128.45,103.14 -198.69,143.45 -41.25,3.75 -82.59,6.46 -123.57,11.78 6.45,-11.44 12.19,-23.37 17.31,-35.74"
         style="fill:#028900;fill-opacity:1;fill-rule:nonzero;stroke:none"
         id="path46"
         inkscape:connector-curvature="0" /><path
         d="m 5355.59,7677 c 54.92,52.7 116.07,101.65 157.97,166.19 30.98,47.63 52.27,100.49 76.28,151.82 25.4,54.19 53.63,102.9 88.33,146.94 -38.17,-24.52 -83.04,-41.23 -123.23,-57.32 -43.8,-17.59 -83.26,-33.47 -119.24,-53.32 -81.14,-138.74 -138.34,-291.63 -168.33,-449.42 27.51,35.34 59.35,67.4 88.22,95.11"
         style="fill:#028900;fill-opacity:1;fill-rule:nonzero;stroke:none"
         id="path48"
         inkscape:connector-curvature="0" /><path
         d="m 6045.05,8521.96 c 0.09,0.15 0.2,0.3 0.32,0.45 0.59,0.88 1.36,1.42 2.16,1.82 6.36,5.63 12.04,11.82 16.98,18.66 4.49,11.48 9.68,22.65 15.66,33.43 -40.74,-5.26 -81.78,-7.98 -122.73,-11.69 -66.27,-36.61 -129.07,-79.74 -190.81,-132.09 -4.74,-4.04 -9.25,-8.31 -13.96,-12.44 26.07,10.19 52.31,19.01 76.98,27.21 62.3,20.68 160.82,28.75 215.4,74.65"
         style="fill:#028900;fill-opacity:1;fill-rule:nonzero;stroke:none"
         id="path50"
         inkscape:connector-curvature="0" /><path
         d="m 5784.61,7878.18 c -39.18,-46.34 -79.06,-86.56 -97.32,-149.65 -0.54,-1.93 -1.92,-3.12 -3.56,-3.8 -0.63,-4.23 -1.41,-8.48 -2.07,-12.74 -23.38,-150.03 -24.37,-308.67 -75.06,-448.37 1.57,1.97 3.18,3.93 4.71,5.85 35.39,43.71 75.98,73.62 119.92,100.76 24.51,111.23 14.85,230.66 24.4,343.03 4.46,52.31 11.62,110.99 28.98,164.92"
         style="fill:#028900;fill-opacity:1;fill-rule:nonzero;stroke:none"
         id="path52"
         inkscape:connector-curvature="0" /><path
         d="m 6551.88,8494.17 c 36.8,-52.53 75.33,-106.29 120.04,-151.14 40.91,-41.01 88.55,-71.74 133.53,-107.67 11.13,-8.9 21.69,-17.96 31.75,-27.18 83.54,-54.67 168.55,-87.28 258.99,-128.4 3.97,-1.81 7.98,-3.64 11.97,-5.54 -61.01,100.08 -134.67,195.78 -218.51,280.71 -71.93,33.2 -142.59,67.27 -219.73,91.55 -40.56,12.76 -83.45,24.54 -118.04,47.67"
         style="fill:#028900;fill-opacity:1;fill-rule:nonzero;stroke:none"
         id="path54"
         inkscape:connector-curvature="0" /><path
         d="m 6890.15,7728.53 c -17.88,61.77 -57.71,103.86 -96.68,149.29 19.75,-60.49 26.51,-127.35 29.73,-185.38 5.92,-106.01 -0.32,-219.97 23.6,-325.11 3.93,-2.17 7.8,-4.36 11.59,-6.6 45.88,-26.96 83.79,-75.73 122.73,-123 -61.86,149.8 -57.32,323.04 -87.48,487 -1.59,0.7 -2.96,1.9 -3.49,3.8"
         style="fill:#028900;fill-opacity:1;fill-rule:nonzero;stroke:none"
         id="path56"
         inkscape:connector-curvature="0" /><path
         d="m 6897.11,8143.59 c 39.78,-50 70.68,-105.52 99.63,-168.48 30.5,-66.31 59.12,-127.61 107.87,-183.08 41.42,-47.16 89.02,-87.87 133.98,-131.61 19.7,-19.19 40.47,-40.7 59.82,-64.04 -23,116.84 -63.18,230.27 -114.26,337.66 -16.42,34.51 -34.37,68.87 -53.8,102.83 -37.94,19.7 -79.19,35.71 -124.14,54.34 -36.04,14.92 -75.21,30.46 -109.1,52.38"
         style="fill:#028900;fill-opacity:1;fill-rule:nonzero;stroke:none"
         id="path58"
         inkscape:connector-curvature="0" /><path
         d="m 7015.76,8240.79 c 0,1.75 -2.81,1.68 -2.68,0 0.33,-3.6 2.61,-5.43 6.06,-5.71 1.11,-0.11 1.4,1.76 0.27,1.94 -2.67,0.48 -3.65,1.81 -3.65,3.77"
         style="fill:#028900;fill-opacity:1;fill-rule:nonzero;stroke:none"
         id="path60"
         inkscape:connector-curvature="0" /><path
         d="m 6919.6,7256.9 c -3.08,11.26 -4.56,22.78 -7.9,33.99 -0.42,1.37 -2.75,1.17 -2.6,-0.35 0.92,-11.91 1.41,-23.03 1.41,-34.88 0,-9.97 4.99,-22.23 7.89,-31.7 0.61,-1.92 3.19,-1.09 2.93,0.79 -1.56,9.99 0.91,22.62 -1.73,32.15"
         style="fill:#028900;fill-opacity:1;fill-rule:nonzero;stroke:none"
         id="path62"
         inkscape:connector-curvature="0" /><path
         d="m 5564.35,8240.79 c 0.12,1.68 -2.69,1.75 -2.69,0 0,-1.96 -0.94,-3.29 -3.63,-3.77 -1.1,-0.18 -0.86,-2.05 0.25,-1.94 3.45,0.28 5.74,2.11 6.07,5.71"
         style="fill:#028900;fill-opacity:1;fill-rule:nonzero;stroke:none"
         id="path64"
         inkscape:connector-curvature="0" /><path
         d="m 9313.77,7460.14 c 1.48,-7.79 3.07,-15.55 4.67,-23.32 -4.83,14.45 -7.38,23.42 -4.67,23.32 z m -6.35,427.39 c 0.07,193.65 -7.36,387.21 -4.28,580.88 -17.89,0.7 -35.71,2.38 -53.25,4.87 3.36,-201.02 -4.47,-401.96 -4.61,-602.96 -0.12,-179.29 9.75,-376.64 -33.68,-551.99 -2.53,-10.13 -5.42,-20.01 -8.08,-30.03 1.25,-44.26 17.19,-77.22 67.82,-67.64 55.34,-3.24 75.65,24.64 79.19,62.43 -3.54,14.52 -7.09,29.02 -9.92,43.82 -35.22,183.62 -33.25,374.42 -33.19,560.62"
         style="fill:#028900;fill-opacity:1;fill-rule:nonzero;stroke:none"
         id="path66"
         inkscape:connector-curvature="0" /><path
         d="m 10708.2,8911.42 c -78.6,9.85 -151.8,26.62 -227.6,49.53 -66.5,20.06 -122.3,40.46 -192.8,37.44 -8.3,-0.39 -16.5,-3.09 -22.4,-9.32 -8.2,-8.6 -37.8,-5.77 -48.3,-6.91 -31.3,-3.32 -60.5,-12.15 -88.2,-26.72 -11.3,-5.95 -20.1,-12.39 -28.8,-21.2 -7.6,-7.69 -5.6,-20.32 -12.5,-27.69 -16.7,-17.87 -34.4,-34.37 -52.4,-50.95 -45.05,-41.49 -90.46,-81.24 -141.09,-115.94 -22.53,-15.39 -44.31,-31.94 -69.66,-42.45 -15.46,-6.44 -34.34,-2.58 -51.04,-3.07 -58.58,-1.75 -111.91,8.58 -168.03,25.08 -4.23,1.24 -8.48,2.51 -12.72,3.78 -4.6,35.98 -13.18,71.42 -25.71,105.11 -12.9,34.75 -35.22,72.8 -64.7,101.22 48.57,18.06 98.9,39.18 134.91,68.45 32.78,26.59 50.34,61.84 78.59,92.74 27.23,29.74 59.36,54.34 85.88,85.43 41.49,48.73 66.66,116.13 87.6,176.41 24.63,70.79 26.47,147.62 13.81,220.91 -2.05,11.75 -18.66,7.78 -19.53,-2.63 -5.87,-70.14 -7.91,-140.94 -29.17,-208.68 -21.03,-66.93 -73.36,-110.95 -117.33,-163.01 -21.11,-25.04 -39.53,-43.83 -44.88,-76.89 -7.78,-47.96 -53.66,-81.84 -92.96,-102.13 -41.11,-21.2 -90.58,-37.77 -130.13,-65.07 -6.14,3.6 -12.44,6.87 -18.98,9.5 6.32,9.85 12.13,20.04 17.21,30.18 6.57,13.2 44.16,25.45 57.25,35.92 35.17,28.2 56.46,82.34 46.4,126.77 -4.07,18.15 -10.55,49.81 -28.42,60.26 -15.55,9.12 -41.48,6.37 -62.46,4.66 -15.58,32.25 -39.77,57.32 -70.74,73.29 1.95,9.46 4.09,18.89 6.7,28.4 7.14,26.03 17.54,50.92 30.43,74.58 1.12,2.01 43.55,56.69 47.22,48.32 10,-22.84 43.95,-18.68 55.09,0 3.11,5.17 4.56,10.05 4.37,16.11 -0.98,30.35 -44.1,45.35 -59.46,16.1 -6.23,-11.89 -39.56,-25.49 -50.47,-37.87 -18.99,-21.42 -30.57,-48.6 -40.94,-74.92 -7.17,-18.09 -13.98,-38.61 -19.29,-60.02 -5.46,1.74 -10.98,3.42 -16.75,4.63 -28.1,6 -68.52,1.23 -94.82,-17.15 -24.68,16.91 -61.77,21.27 -88.78,17.99 -8.16,-0.98 -16.05,-2.69 -23.67,-4.93 -5.34,20.91 -11.88,41.12 -18.49,59.48 -9.41,26.32 -22.28,53.86 -40.96,74.92 -10.91,12.38 -44.23,25.98 -50.47,37.87 -15.36,29.25 -58.46,14.25 -59.45,-16.1 -0.2,-6.06 1.28,-10.94 4.37,-16.11 11.17,-18.68 45.09,-22.84 55.08,0 3.78,8.6 46.22,-46.7 47.22,-48.32 13.98,-23.01 22.68,-48.99 30.44,-74.58 2.75,-9.09 5.01,-18.24 6.95,-27.38 -31.16,-16.06 -55.82,-42.82 -71.26,-74.95 -45.64,1.17 -68.33,2.63 -87.23,-49.24 -16.43,-45.05 1.93,-97.88 32.97,-131.37 15.48,-16.77 37.11,-34.72 59.68,-40.76 8.64,-2.28 18.84,-18.76 27.95,-34.61 -7.77,-2.85 -15.2,-6.46 -22.31,-10.7 -35.19,24.01 -78.01,39.37 -115.11,57.26 -42.73,20.66 -72.49,43.14 -97.19,84.33 -20.24,33.69 -18.46,59.65 -45.47,90.92 -44.25,51.29 -98.13,98.43 -123.01,162.39 -27.17,69.81 -27.31,147.42 -33.48,220.91 -0.89,10.41 -17.46,14.38 -19.52,2.63 -12.19,-70.53 -9.07,-139.5 9.89,-208.38 16.09,-58.5 44.74,-130.75 82.41,-177.94 21.69,-27.15 47.32,-61.62 76.53,-80.82 36.65,-24.13 52.58,-68.57 84.13,-97.85 37.68,-35.05 94.19,-59.03 148.05,-79.07 -28.87,-28.46 -50.57,-66.54 -64.94,-101.1 -13.64,-32.86 -22.38,-68.69 -26.83,-105.35 -54.36,-17.14 -110.8,-32.13 -168.22,-29.2 -14.78,0.78 -39.5,-4.12 -52.95,0.14 -25.04,7.94 -46.68,23.48 -68.11,38.17 -50.64,34.74 -96.75,73.15 -142.1,114.52 -18.65,16.99 -37.85,33.63 -54.99,52.18 -13.38,14.51 -13.19,34.18 -30.98,45.56 -31.86,20.28 -61.6,31.25 -99.03,37.09 -25.54,4.03 -45.64,9.57 -69.18,16.02 -58.66,16.14 -130.31,-11.58 -184.74,-30.44 -80.17,-27.81 -160.09,-44.85 -244.16,-55.38 -1.77,-0.24 -1.84,-2.69 0,-2.86 66.89,-6.11 135.35,5.51 201.54,15.14 71.74,10.48 146.52,12.75 218.91,11.19 9.64,-0.22 19.93,9.39 29.26,7.19 17.94,-4.14 35.08,-10.82 52.17,-17.48 25.17,-9.8 60.69,-33.98 87.8,-34.83 25.09,-0.8 50.52,-33.81 68.12,-49.41 24.97,-22.1 50.16,-43.91 75.73,-65.34 39.39,-33 75.89,-67.23 119.34,-95.16 36.56,-23.5 58.84,-50.17 105.38,-51.97 51.65,-1.97 104.86,17.89 152.78,35.93 0,-17.06 0.9,-34.03 2.61,-50.79 -35.96,-24.34 -71.25,-49.61 -107.63,-73.3 -52.98,-34.49 -100.57,-65.01 -165.79,-44.34 -39.99,12.65 -85.68,15.53 -126.81,25.64 -38.68,9.55 -77.21,17.79 -116.78,23.01 -109.28,14.48 -209.55,-37.54 -275.96,-119.21 -30.23,-37.12 -53.13,-80.96 -70.27,-125.47 -11.72,-30.46 -17.02,-64.78 -26.52,-96.51 -9.7,-32.33 -15.83,-62.92 -16.48,-96.68 -0.05,-2.31 3.48,-2.29 3.62,0 3.94,76.54 38.8,128.94 67.3,196.12 20.17,47.51 42.87,96.62 80.08,133.18 101.46,99.6 274.96,36.76 392.67,10.64 111.76,-24.82 201.49,18.59 292.05,80.19 23.1,15.7 45.8,31.92 68.61,48.09 -52.82,-73.3 -92.23,-156.12 -127.95,-240.8 -58.25,-138.21 -100.1,-282.02 -144.28,-425.1 -112.09,-362.91 -149.8,-756.25 -128.24,-1134.62 1.05,-18.4 16.01,-28.42 33.51,-25.52 100.87,16.75 196.47,88.77 274.98,149.76 71.48,55.53 140.08,116.95 200.01,185.49 43.41,87.75 75.13,180.52 93.82,278.89 35.24,185.62 44.98,378.6 62.47,566.67 16.92,181.23 23.46,363.79 27.89,545.72 -45.13,7.35 -87.46,19.85 -120.84,34.7 -7.84,3.45 -2.06,14.98 5.57,13.25 68.89,-15.6 139.8,-19.69 210.06,-12.38 58.39,6.07 115.2,26.52 172.82,30.96 6.12,0.49 8.77,-7.65 4.83,-11.63 -46.51,-46.57 -120.51,-63.03 -195.94,-61.79 4.49,-183.53 10.57,-367.86 28.49,-550.58 18.65,-190.56 30.12,-383.41 65.91,-571.56 19.56,-102.99 57.12,-202.24 107.19,-294.62 50.23,-52.65 105.66,-100.72 161.22,-144.69 81.06,-64.17 180.8,-140.77 285.83,-158.19 17.49,-2.9 32.46,7.12 33.5,25.52 21.3,374.03 -17.64,757.23 -123,1117.13 -42.19,144.29 -86.92,288.25 -143.4,427.67 -36.3,89.6 -77.64,178.03 -133.8,255.59 19.27,-13.54 38.45,-27.25 57.78,-40.71 86.43,-60.24 175.89,-109.9 284.4,-91.1 133.92,23.15 269.52,82.63 396.02,5.48 45,-27.42 68.6,-87.77 89.5,-133.41 31.9,-69.65 68.7,-128.77 72.7,-208.35 0.2,-2.29 3.7,-2.31 3.6,0 -0.5,28.62 -4.6,54.63 -12,82.24 -8.4,30.84 -14.9,69.13 -26,98.13 -18.8,48.87 -42,94.29 -73.6,136.17 -65.6,87.11 -167.6,130.89 -277.6,121.33 -76.6,-6.63 -149.9,-34.73 -225.93,-45.53 -34.76,-4.92 -64.68,-18.38 -99.92,-5.21 -25.78,9.6 -49.83,25.34 -73.07,39.77 -40.37,25.11 -79.02,52.92 -118.26,79.81 1.66,16.94 2.43,33.97 2.27,51.04 45.48,-17.26 92.22,-31.49 140.84,-35.72 45.61,-3.94 65.02,17.83 99.47,39.18 45.84,28.39 86.6,62.16 126.44,98.33 42.16,38.32 86.26,79.07 131.96,113.2 18.5,13.86 53.3,22.56 75,30.22 37.4,13.21 69.2,37.83 109,26.9 22,-6.06 63.5,-5.8 86.1,-2.39 37.2,5.64 86.7,-2.21 123.7,-7.33 72.1,-9.97 146.1,-24.4 219,-17.75 1.9,0.17 1.8,2.62 0,2.86"
         style="fill:#028900;fill-opacity:1;fill-rule:nonzero;stroke:none"
         id="path68"
         inkscape:connector-curvature="0" /><path
         d="m 11924.5,5601.94 c -25.2,2.07 -51,4.01 -76,8.9 -0.7,-30.63 -1.1,-61.25 -0.9,-91.93 25.5,-0.83 50.9,-1.59 76.3,-1.26 30.1,0.39 59.8,4.08 89.6,6.84 0,26.29 -0.3,52.56 -0.7,78.82 -28.9,-5.36 -59.8,-3.71 -88.3,-1.37"
         style="fill:#028900;fill-opacity:1;fill-rule:nonzero;stroke:none"
         id="path70"
         inkscape:connector-curvature="0" /><path
         d="m 11920.2,5678.29 c -23.7,0.82 -46.7,5.74 -69.6,11.49 -0.3,-13.63 -0.6,-27.07 -1.1,-40.2 -0.1,-3.21 -0.1,-6.41 -0.3,-9.62 30.8,-2.2 61.6,-7.16 92.4,-7.26 23.4,-0.09 47.1,2.31 70.6,1.98 -0.2,4.98 -0.2,9.93 -0.3,14.9 -0.3,12.89 -0.5,26.13 -0.8,39.59 -12.3,-0.92 -24.6,-1.8 -37,-3.97 -17.2,-2.97 -36.2,-7.55 -53.9,-6.91"
         style="fill:#028900;fill-opacity:1;fill-rule:nonzero;stroke:none"
         id="path72"
         inkscape:connector-curvature="0" /><path
         d="m 13458.9,4991.55 c -157.2,79.47 -329.7,130.56 -501.1,168.84 -50.7,11.33 -202,2.99 -217.1,54.93 -26.3,90.69 -50.1,181.89 -79.3,271.81 -50.1,153.88 -115.7,294.32 -230.8,410.19 -93.9,94.53 -209.1,177.75 -321.6,254.01 3.4,31.85 4.5,64.11 3.1,96.99 -1.2,25.78 -3,52.22 -5.4,78.97 65,-32.29 131.2,-62.29 201,-87.41 123.3,-44.4 252.9,-97.17 382.9,-117.28 102.5,-15.88 202,4.4 299.9,33.31 78.6,23.16 162.7,52.79 226.6,105.6 45.8,37.87 46,92.37 2.3,131.09 -82.8,73.29 -227.4,83.76 -332.1,88.58 -268.4,12.4 -530.6,-64.59 -796.8,-28.61 -5.9,35.23 -13.1,70.44 -21.5,105.27 77.5,77.64 156.8,152.09 239.8,225.64 103.5,91.65 201.1,201.98 261.5,327.24 35.8,74.08 67,146.94 107.2,218.89 36.9,66.05 64.8,144.3 112,204.15 89.1,70.55 193,96.01 305.1,124.26 98,24.71 232.6,59.11 283.1,157.19 1.8,3.61 -2.1,8.29 -5.9,5.84 -56.7,-36.61 -106,-73.44 -170,-97.77 -39.7,-15.09 -80.8,-26.47 -122,-37.21 -1,0.82 -2.2,1.23 -3.7,0.68 -5.9,-2.08 -11.9,-4.21 -17.8,-6.32 -12.9,-3.3 -25.9,-6.59 -38.7,-9.95 -98.8,-25.78 -224.5,-58.69 -269.2,-161.53 -0.9,-2.08 0.1,-4.06 1.7,-4.95 -21.5,-28.56 -49.5,-54.07 -75.1,-76.67 -61.6,-54.31 -108.4,-112.76 -134.1,-191.92 -26.1,-80.32 -34.7,-162.36 -80.6,-235.64 -42.6,-68.01 -105.6,-126.34 -164.3,-180.33 -78.4,-72.08 -168.3,-139.35 -239.8,-220.28 -21.3,76.59 -49.3,150.14 -85.5,215.32 -4.8,8.57 -13.8,9.99 -21.1,7.05 v 0 c 1.6,0.83 2.7,1.86 3.4,3.01 1.5,1.26 2.3,2.97 2.3,5.1 0,0.16 0.1,0.33 0.1,0.48 36.5,54.63 63.5,114.53 89,177.23 24,59.22 47.8,118.45 72.2,177.58 15.1,36.59 44.7,79.52 47.9,119.86 0.3,4.65 -5.9,8.43 -9.8,5.6 -30.4,-22.16 -44.2,-69.04 -60.6,-101.35 -28.8,-56.55 -54.5,-114.83 -82.3,-171.92 -33.9,-69.74 -61.7,-142.19 -74.3,-216.61 0,-0.02 0,-0.05 0,-0.07 -3.6,-0.15 -6.9,-0.11 -8.8,-0.13 -2,0.02 -5.2,-0.02 -8.8,0.13 0,0.02 0,0.05 0,0.07 -12,70.67 -39.4,135.53 -68.2,203.13 -25,58.53 -54.9,115.85 -82.3,173.36 -16.8,35.2 -34.1,89.57 -66.8,113.39 -3.8,2.83 -10.1,-0.95 -9.7,-5.6 3.1,-40.34 32.8,-83.27 47.8,-119.86 24.4,-59.13 48.2,-118.36 72.3,-177.58 25.4,-62.74 52.5,-122.67 89,-177.31 0,-0.11 0.1,-0.24 0.1,-0.33 0,-2.25 0.8,-4.01 2.4,-5.3 0.1,0 0.1,-0.02 0.1,-0.02 v -0.03 c 0.7,-1 1.7,-1.92 3.1,-2.77 0,-0.02 0,-0.04 0,-0.06 -7.3,2.94 -16.3,1.52 -21,-7.05 -36.8,-66.29 -64,-139.74 -84.4,-215.83 -48.9,54.56 -106.7,102.57 -160.6,149.82 -95.2,83.47 -183.6,159.97 -244.3,272.57 -33,61.19 -50.6,129.58 -73.3,194.89 -20.4,59.05 -51.9,113.29 -66.6,174.69 -8.8,37.04 -22.3,77.16 -41.2,114.45 0.8,1.07 1.2,2.43 0.6,3.88 -12.2,28.33 -29.7,51.5 -50.7,70.85 -20.6,22.68 -44.7,41.26 -72.7,53 -2.3,0.97 -4.1,-0.32 -4.9,-2.2 -29.8,14.35 -61.4,25.74 -92.5,35.98 -50,16.49 -100.4,30.81 -149.4,50.19 -64.1,25.38 -113.6,66.7 -170.3,104.28 -3.8,2.5 -7.7,-2.26 -5.9,-5.84 45.4,-86.14 147.1,-124.4 234.5,-152.47 107.3,-34.43 197.1,-63.92 280.9,-135.32 8.8,-19.18 16.6,-39.53 25.2,-57.21 31.6,-65.15 41.6,-130.77 39.5,-202.47 -3.5,-120.24 50.6,-218.14 125.1,-308.65 70.6,-85.88 158.2,-161.88 242.1,-234.55 61.5,-53.35 117.6,-110.59 173.8,-168.27 -8,-34.27 -14.8,-68.89 -20.5,-103.53 -258.8,-36.3 -516.6,31.32 -777.5,29.03 -78,-0.67 -508.6,-51.89 -358.3,-213.71 53.3,-57.46 147.5,-84.82 219.5,-107.87 100.8,-32.2 201.9,-50.79 307.9,-38.4 125.1,14.59 247.4,70.79 366.1,110.17 78.7,26.11 152.8,59.51 225.6,95.84 -2.2,-20.43 -4.1,-40.72 -5.8,-60.72 -3.2,-38.09 -3.2,-77.64 0.5,-116.93 -106.1,-73.03 -212,-152.04 -305.4,-238.47 -125.4,-116.07 -192.4,-265.13 -245.7,-424.55 -27.7,-82.74 -53.4,-167.19 -74.2,-251.91 -13.5,-54.69 -33.9,-49.02 -85.6,-54.65 -38.3,-4.14 -76.4,-9.75 -114.3,-16.25 -178.3,-30.56 -362,-91.16 -523.4,-172.77 -8.3,-4.15 -2.4,-16.53 6.1,-14.44 238.9,59.27 477.9,122.03 716.3,183.77 4.4,1.12 8,4.82 9.2,9.2 54.7,200.27 109.3,423.96 225.4,598.34 100.8,151.31 260.3,232.52 396.6,342.58 6.7,-41.17 17.7,-81.44 34.5,-118.67 3.5,-7.88 6.9,-15.86 10.2,-23.83 -227.2,-218.03 -212.4,-595.81 -263,-885.16 -33.8,-193.77 -126.4,-373.69 -244.4,-529.1 -111.1,-146.35 -261.1,-291.82 -318.1,-470.19 -3.4,-10.73 11.8,-20.01 19.3,-11.23 61.2,71.12 108.4,154.16 162.8,230.46 51.9,72.8 105.7,144.16 157.4,217.06 103,144.99 190,292.71 235.7,465.93 46.6,176.46 50.6,365.5 86.4,544.72 18,90.3 45.1,178.89 86,261.5 25.2,50.91 57.7,94.93 93.9,136.27 14.2,-37.24 27.3,-74.95 41.1,-112.28 -4,-30.93 -5.4,-62.63 -6.4,-93.87 37.3,-3.97 73.7,-12.45 113.6,-4.86 15.4,2.9 30.4,6.13 45.1,6.73 -0.9,30.77 -2.6,61.99 -6.7,92.44 13.6,37.04 26.6,74.49 40.7,111.31 35.6,-41.38 67.6,-85.2 94.3,-135.74 42.8,-81.33 67,-172.06 85.9,-261.5 38.1,-179.81 42.9,-366.43 86.4,-544.72 42.4,-173.42 134.3,-321.52 235.7,-465.93 51.4,-73.19 105.1,-144.54 157.5,-217.06 54.8,-76.03 101.5,-159.27 162.7,-230.46 7.6,-8.78 22.7,0.5 19.3,11.23 -53.3,166.89 -190.8,309.86 -298.3,444.64 -126.4,158.44 -212.3,334.94 -259.2,532.03 -70.9,297.86 -30,682.46 -268,908.39 0.8,1.86 1.5,3.73 2.3,5.59 19.6,45.68 33.2,92.19 41.2,139.72 44,-33.37 91,-63.76 134.8,-95.72 92.8,-67.65 181.1,-141.16 250.8,-233.11 68.2,-89.94 107.5,-200.47 143.2,-306.33 34.2,-101.68 66.2,-205.71 94.5,-309.18 1.2,-4.38 4.8,-8.08 9.2,-9.2 238.4,-61.74 477.4,-124.5 716.3,-183.77 8.5,-2.09 14.3,10.29 6.1,14.44"
         style="fill:#028900;fill-opacity:1;fill-rule:nonzero;stroke:none"
         id="path74"
         inkscape:connector-curvature="0" /><path
         d="m 11847.9,5497.25 c 0.4,-29.27 1.3,-58.51 2.4,-87.69 31,0.06 62.1,2.26 93.1,5.14 22.7,2.12 45.6,5.66 68.1,5.24 0.9,24.21 1.5,48.43 1.8,72.64 -52.8,-10.01 -110.7,-4.28 -165.4,4.67"
         style="fill:#028900;fill-opacity:1;fill-rule:nonzero;stroke:none"
         id="path76"
         inkscape:connector-curvature="0" /><path
         d="m 11861.5,5235.74 c 2.7,-27.4 6.2,-54.8 10.5,-82.07 26.1,2.56 52.1,3.85 78.9,4.48 12.9,0.3 25.9,1.2 39,2.07 4.4,28.86 7.8,57.89 10.6,86.91 -21.6,-1.16 -43.4,-1.46 -64.4,-3.51 -25,-2.47 -49.8,-5.31 -74.6,-7.88"
         style="fill:#028900;fill-opacity:1;fill-rule:nonzero;stroke:none"
         id="path78"
         inkscape:connector-curvature="0" /><path
         d="m 11851.2,5384.71 c 0.1,-1.94 0.2,-3.9 0.3,-5.85 1.7,-36.86 3.9,-74.58 7.1,-112.51 46.9,11.23 98.5,18.95 145,16.33 2.5,32.36 4.5,64.56 6.3,96.18 0.1,1.29 0.1,2.6 0.2,3.89 -27.7,-3.52 -56.6,-3.23 -83.4,-3.78 -26,-0.52 -50.8,1.38 -75.5,5.74"
         style="fill:#028900;fill-opacity:1;fill-rule:nonzero;stroke:none"
         id="path80"
         inkscape:connector-curvature="0" /><path
         d="m 11875.7,5131.64 c 5.4,-30.38 11.9,-60.49 20.1,-89.98 5.9,-20.94 12.5,-41.56 20.1,-61.76 4.6,-12.32 9.4,-24.52 14.8,-36.49 5.3,12.02 10.2,24.25 14.7,36.6 7.7,20.57 14.4,41.54 20.2,62.8 7.5,27.28 13.6,55.04 18.7,83.05 -36,-1.4 -73.5,2.68 -108.6,5.78"
         style="fill:#028900;fill-opacity:1;fill-rule:nonzero;stroke:none"
         id="path82"
         inkscape:connector-curvature="0" /><path
         d="m 7290.26,3502.04 c -80.36,166.7 -155.45,336.55 -243.92,499.16 -53.65,98.64 -113.46,205.45 -189.2,294.67 72.73,-55.95 150.93,-103.14 232.04,-147.91 53.34,-29.4 109.03,-57.78 157.09,-95.45 22.05,-17.28 41.03,-36.7 58.67,-57.22 1.38,-2.16 2.74,-4.3 4.1,-6.44 79.26,-122.83 112.52,-259.11 121.01,-403.97 3.92,-67.2 -65.99,-83.41 -139.79,-82.84 z m -144.01,15.48 c -47.54,7.82 -93.83,18.16 -138.98,31.53 -18.64,67.54 -53.71,134.2 -76.35,198.58 -35.34,100.54 -67.39,209.46 -79.77,315.54 -6.53,55.9 -7.71,123.23 -16.94,188.33 65.93,-94.33 130.04,-188.83 183.01,-294.19 75.02,-149.32 139.8,-303.74 216.72,-452.08 -35.73,3.51 -67.94,9.03 -87.69,12.29 z m -338.19,118.03 c -43.67,26.24 -84.07,56.19 -121.16,89.26 -2.27,4.73 -4.43,9.46 -6.48,14.26 -27.15,63.88 -45.65,130.61 -63.02,197.69 -21.38,82.5 -34.45,170.2 -60.97,252.29 24.67,-25.21 50.96,-48.98 78.45,-71.64 66.95,-55.14 120.47,-115.17 177.98,-179.43 1.44,-1.62 4.27,-0.32 4.23,1.74 -0.04,1.4 -0.18,2.75 -0.26,4.1 20.87,-79.04 48.12,-156.23 77.37,-232.63 17.61,-46.04 35.93,-98.59 61.28,-145.06 -50.7,18.28 -99.91,40.88 -147.42,69.42 z m -396.91,549.33 c 3.86,22.55 6.56,45.33 7.85,68.23 5.21,89.66 -29.43,172.45 -58.5,255.16 -13.84,39.38 -17.33,76.45 -14.86,112.32 5.23,-23.36 10.97,-46.29 16.45,-68.28 20.81,-83.59 52.7,-163.43 96.5,-237.56 16.28,-27.52 34.69,-53.22 54.65,-77.57 12.28,-112.03 36.28,-223.64 62.58,-332.81 5.87,-24.38 12.83,-54.54 21.67,-86.32 -87.57,106.23 -149.54,232.7 -186.34,366.83 z m -3.99,719.66 c 56.03,-184.69 183.95,-357.12 320.28,-493.24 -1.18,-1.24 -1.71,-3.09 -0.64,-4.66 2.01,-3.03 4.08,-5.97 6.09,-8.99 22.51,-60.31 36.78,-119.08 43.99,-186.93 7.36,-68.95 11.79,-137.78 25.44,-205.64 -15.82,36.53 -42.65,68.26 -71.98,96.94 -63.92,62.5 -134.08,113.74 -188.83,185.6 -53.92,70.74 -91.79,153.86 -117.76,238.5 -22.68,74.01 -27.5,155.01 -48.71,229.5 14.42,48.3 29.17,96.95 32.12,148.92 z m 628.57,-500.04 c 66.95,-92.54 128.73,-188.74 190.05,-285.2 -108.52,80.84 -246.5,138.34 -342.74,213 -110.08,85.34 -205.43,189.39 -285.73,302.89 -69.85,98.73 -116.22,204.59 -165.44,312.92 247.9,-121.55 439.47,-316.42 603.86,-543.61 z M 5811,4508.27 c -24.94,-77.54 -55.09,-148.32 -58.86,-230.95 -1.48,-31.61 1.37,-63.39 7.24,-94.76 -36.75,-131.95 -98.19,-255 -184.42,-359.98 8.23,30.06 14.86,58.51 20.71,81.79 27.44,109.32 50.77,222.3 62.82,334.91 14.97,18.14 29.3,37.13 42.86,57.24 48.32,71.69 78.78,153.13 102.64,235.65 8.03,27.77 16.19,57.63 23.06,88.24 0.94,-36.42 -3.58,-73.31 -16.05,-112.14 z m -308.31,-740.71 c -4.93,-13.26 -10.9,-26.26 -17.28,-39.21 -32.65,-29.63 -67.55,-57.31 -105.32,-82.26 -52.52,-34.75 -107.76,-60.61 -165.17,-80.68 21.13,39.47 37.04,82.92 53.07,122.32 34.32,84.18 63.09,170.33 86.78,258.03 -0.11,-2 -0.33,-3.98 -0.37,-6.04 -0.06,-2.06 2.77,-3.36 4.21,-1.74 52.81,58.98 101.04,116.09 162.52,166.8 33.81,27.87 65.35,56.27 94.69,86.68 -24.98,-76.51 -38.15,-158.04 -56.83,-235.11 -15.48,-63.86 -33.31,-127.19 -56.3,-188.79 z m -461.37,-247.18 c -23.06,-4.4 -61.91,-11.75 -104.14,-15.9 77.2,148.45 143.02,302.81 217.08,452.83 52.13,105.57 116.39,199.88 182.49,293.97 -9.58,-65.18 -10.84,-132.53 -16.42,-188.11 -10.67,-106.48 -46.34,-214.41 -79.75,-315.54 -21.61,-65.23 -57.2,-130.87 -76.17,-198.25 -40.11,-11.6 -81.18,-20.98 -123.09,-29 z m -299.9,64.5 c 3.23,133.75 39.55,269.48 108.15,383.49 4.78,7.92 9.78,15.77 14.6,23.71 14.46,16.93 29.77,33.24 46.9,48.56 45.22,40.47 101.52,68.12 153.98,97.77 88.31,49.82 172.78,100.06 252.33,160.9 -76.9,-89.98 -136.93,-198.18 -192.25,-298.11 -89.74,-162 -163.83,-332.94 -244.23,-499.73 -73.54,-0.21 -141.07,17.11 -139.48,83.41 z m 382.14,802.58 c 165.24,234.27 361.99,436.17 616.01,560.65 -46.16,-101.46 -89.85,-200.34 -152.78,-294.45 -77.68,-116.19 -173.65,-218.62 -281.12,-307.58 -99.98,-82.74 -248.97,-142.58 -363.49,-229.01 58.5,91.58 119.12,182.11 181.38,270.39 z m 671.88,391.99 c 1.38,-4.37 2.7,-8.68 4.02,-12.99 -21.87,-70.75 -27.3,-149.12 -46.06,-220.34 -22.66,-86.03 -61.1,-166.83 -110.59,-240.57 -50.53,-75.26 -120.44,-130.85 -187.48,-190.35 -35.21,-31.24 -68.38,-67.82 -86.58,-110.67 12.04,61.06 17.21,122.44 23.5,184.93 7.56,75.74 21.92,141.44 46.88,209 1.83,2.74 3.71,5.43 5.56,8.18 0.81,1.2 0.52,2.48 -0.09,3.62 138.08,135.66 264.94,311.9 320.17,495.87 3.18,-43.22 17.43,-85.02 30.67,-126.68 z M 7466.58,3732.83 c -28.65,170.2 -119.26,297.6 -209.8,441.31 -177,280.91 -374.25,569.09 -663,745.39 -63.92,39.06 -133.83,69.94 -206.19,91.04 -0.66,1.4 -1.31,2.85 -2.03,4.25 73.91,-0.87 148.15,1.35 221.87,0.26 44.62,-0.62 89.44,2.25 133.88,-2.57 24.69,-2.71 48.4,-2.45 73.05,-7.12 26.94,-5.11 48.94,-22.24 75.77,-28.84 20.41,-5 43.1,9.96 42.3,32.24 -0.24,6.96 -0.12,13.88 0.02,20.82 17.51,19.98 29.92,44.69 36.16,70.2 4.12,16.88 9.3,37.54 12.87,58.59 51,56.22 48.87,148.95 29.32,223.47 2.42,0.48 4.84,0.83 7.3,1.39 11.72,2.8 23.68,13.9 25.99,26.01 1.4,7.24 41.1,27.04 57.94,35.98 31.39,8.34 59.59,11.39 96.37,2.65 36.93,-8.78 65.27,-36.29 101.37,-44.78 7.4,-1.7 15.25,6.47 10.43,13.56 -16.75,24.77 -46.92,43.85 -81.08,54.93 5.22,0.48 10.43,1.01 15.68,1.18 25.96,0.83 50.31,-3.38 76.2,-0.73 4.73,0.51 7.59,5.79 3.97,9.58 -38.17,39.89 -118.45,39.03 -164.26,9.46 -0.96,-0.18 -1.78,-0.29 -2.8,-0.48 -24.67,-5.14 -20.5,-12.16 -46.35,-10.98 -10.41,0.48 -17.64,-1.92 -27.42,-5.06 -6.11,-1.96 -56.28,-23.95 -57.15,-23.3 -17.04,12.48 -37.09,-0.74 -54.04,-5.28 -33.07,-8.85 -31.34,-58.24 -2.48,-66.88 0.46,-26.55 0.3,-52.86 -1.55,-80.1 -2.05,-30.55 -9.32,-60.56 -13.66,-90.81 -8.29,-25.94 -11.91,-55.09 -23.36,-79.48 -8.4,-17.91 -19.33,-34.37 -31.34,-50.04 -7.97,0.33 -15.95,-1.85 -22.35,-6.45 -55.32,28.27 -132.15,19.31 -188.23,2 -106.02,-32.69 -213.78,-19.15 -321.66,-29.07 -12.56,19.65 -26.91,38.19 -41.18,55.51 -1.98,2.45 -4.05,4.71 -6.11,7.03 42.48,21.11 84.23,43.63 126.68,64.82 21.03,10.52 70.66,28.23 109.37,51.23 26.51,-3.23 50.07,2.24 79.91,11.52 31.59,9.81 36.36,50.69 8.95,68.4 -12.27,7.9 -23.06,17.76 -32.66,28.98 -0.02,15.01 0.42,30.18 -2.31,44.69 -7.11,37.89 -19.09,79.03 -21.56,117.38 -3.38,52.47 -23.73,109.3 -7.48,160.73 10.93,34.6 43.47,51.49 59.77,81.76 0.22,0.44 0.53,0.81 0.75,1.22 5.15,2.77 10.53,6.59 17.18,11.02 27.76,18.47 46.9,47.01 70.23,71.48 7.91,6.63 15.29,13.27 21.57,19.99 14.86,15.93 -9.84,40.09 -23.71,23.71 -14.38,-16.99 -41.84,-40.29 -69.57,-58.59 8.31,27.39 14.7,55.12 17.47,84.22 2.27,23.86 -33.5,26.53 -40.16,5.45 -13.15,-41.88 -17.21,-85.5 -37.73,-125.03 -2.14,-4.07 -2.93,-8.16 -2.86,-12.11 -16.96,-11.28 -31.57,-28.38 -43.17,-46.84 -16.95,-9.23 -34.27,-17.36 -53.8,-20.33 -12.06,-1.83 -19.48,-15.16 -19.91,-26.17 -2.43,-59.99 9.69,-109.68 28.24,-163.03 2.56,-31.99 8.78,-64.02 15.67,-95.18 7.85,-35.68 25.54,-69.4 35.97,-104.11 -2.38,-2.9 -4.19,-6.26 -4.97,-10.06 0.17,0.77 -66.84,-34.42 -75.98,-39.61 -38.18,-21.6 -77.22,-41.67 -115.64,-62.87 -19.11,-10.55 -51.98,-26.69 -75.24,-47.4 -47.97,43.65 -95.06,75.61 -106.58,153.03 -0.4,2.79 -1.27,5.1 -2.4,7.13 64.94,-11.8 137.12,15.94 164.91,84.68 30.61,75.74 -27.68,162.16 -102.5,177.68 -25.81,5.32 -55.34,3.23 -82.5,-5.36 9.05,13.48 17.38,28.5 19.5,43.77 2.11,15.69 -11.97,30.48 -27.88,21.42 -18.35,-10.46 -32.89,-29.95 -44.83,-46.98 -6,-8.57 -12.17,-17.06 -17.71,-25.97 -0.17,-0.26 -0.22,-0.49 -0.39,-0.76 -5.68,9.12 -11.78,17.91 -17.96,26.73 -11.93,17.03 -26.5,36.5 -44.82,46.98 -15.88,9.06 -30,-5.73 -27.86,-21.42 2.12,-15.52 10.71,-30.82 19.94,-44.49 -24.13,7.55 -50.02,10.15 -73.45,7.34 -83.73,-10.08 -132.28,-92.54 -114.07,-172.3 3.14,-13.86 10.45,-27.41 18.63,-38.87 4.38,-6.2 9.32,-11.86 14.57,-17.34 3.34,-3.34 7.31,-5.64 11.54,-7.5 0.29,-0.45 1.77,-1.68 4.87,-3.92 26.59,-22.15 63.41,-30.09 97.29,-29.49 6.3,0.1 12.41,0.76 18.39,1.66 -0.26,-0.99 -0.57,-1.92 -0.74,-2.99 -11.5,-77.4 -56.43,-108.6 -106.15,-153.43 -23.28,20.82 -56.48,36.91 -75.66,47.8 -31.82,18.04 -64.32,34.91 -96.5,52.32 -12.41,6.74 -94.52,47.24 -95.11,50.16 -0.74,3.67 -2.47,6.94 -4.69,9.78 8.64,26.36 22.58,52.61 29.41,79.04 9.44,36.65 18.38,75.23 21.29,113.05 0.13,1.79 0.13,3.49 0.24,5.3 18.63,53.41 31.1,104.95 28.68,165.21 -0.46,11.01 -7.85,24.34 -19.96,26.17 -19.72,3.02 -37.17,11.26 -54.32,20.59 -11.86,16.8 -26.41,31.85 -41.75,45.51 -0.28,0.24 -0.61,0.44 -0.89,0.7 0.15,4.06 -0.64,8.29 -2.82,12.48 -20.52,39.53 -24.6,83.15 -37.76,125.03 -6.63,21.08 -42.43,18.41 -40.14,-5.45 2.75,-29.1 9.17,-56.83 17.48,-84.22 -27.73,18.3 -55.22,41.6 -69.59,58.59 -13.87,16.38 -38.57,-7.78 -23.71,-23.71 10.97,-11.78 22.56,-22.96 34.31,-33.95 18.07,-20.77 34.93,-42.5 57.5,-57.52 5.26,-3.51 9.74,-6.61 13.92,-9.15 20.07,-20.01 38.77,-41.2 54.32,-65.3 29.99,-46.53 11.34,-118.11 3.45,-169.32 -5.33,-34.27 -12.05,-68.37 -18.19,-102.53 -3.97,-22.05 -3.97,-45.68 -5.38,-68.57 -9.98,-11.93 -21.31,-22.45 -34.44,-30.91 -27.42,-17.71 -22.62,-58.59 8.94,-68.4 29.87,-9.28 53.43,-14.75 79.91,-11.52 38.72,-23 88.35,-40.71 109.4,-51.23 38.2,-19.08 75.57,-39.93 114.02,-58.42 4.13,-1.98 8.22,-4.18 12.33,-6.44 -17.56,-18.94 -34.4,-40.24 -48.51,-63.15 -100.05,6.72 -204.34,-9.85 -299.67,22.03 -61.38,20.56 -148.23,37.96 -209.31,6.13 -5.93,4.05 -13.08,6.16 -20.33,6.14 -11.67,15.81 -22.51,32.23 -32.72,49.91 -13.22,22.86 -16.01,50.06 -22.71,75.16 -2.92,22.43 -7.57,44.78 -10.63,67.16 -5.07,36.82 -5.82,72.1 -5.27,108.07 28.9,8.64 30.63,58.03 -2.46,66.88 -15.06,4.01 -29.02,13.46 -45.16,9.03 -17.58,-4.84 -36.34,9.51 -54.67,15.7 -27.94,9.39 -56.1,7.62 -83.22,19.07 -14.38,6.09 -29.54,4.37 -44.18,1.22 -4.14,-0.86 -3.75,-6.85 0,-7.94 3.23,-0.96 6.33,-1.83 9.45,-2.7 -48.9,-6.59 -96.61,-29.98 -119.47,-63.7 -4.81,-7.09 3.05,-15.26 10.42,-13.56 35.56,8.38 65.86,33.72 101.37,44.78 34.77,10.84 64.29,6.6 95.25,-2.03 16.11,-8.62 57.65,-29.19 59.07,-36.6 2.31,-12.11 14.26,-23.21 25.98,-26.01 2.45,-0.56 4.89,-0.91 7.33,-1.39 -19.66,-74.83 -21.73,-168.02 29.93,-224.15 3.75,-20.48 8.85,-40.64 12.26,-57.91 4.99,-25.35 18.15,-50.35 36.14,-70.44 0.15,-6.83 0.29,-13.67 0.03,-20.58 -0.83,-22.28 21.87,-37.24 42.32,-32.24 45.02,11.09 79.14,31.35 127.26,34.93 44,3.3 87.93,0.42 131.65,3.67 81.41,6.04 163.65,0.7 245.5,0.36 -0.81,-1.65 -1.53,-3.31 -2.27,-4.97 -289.55,-84.81 -509.82,-323.53 -683.97,-560.71 -106.82,-145.46 -203.11,-300.04 -298.52,-453.09 -75.36,-120.76 -103.54,-257.62 -113.42,-398.11 -17.27,-246.19 410.48,-131.79 537,-93.44 75.37,22.85 146.44,58.2 211.58,102.91 1.77,-2.44 5.08,-3.58 8.34,-2.14 25.78,11.64 46.91,32.49 64.67,58.25 129.32,110.91 227.72,260.47 277.85,420.19 7.49,-20.16 15.82,-39.91 24.63,-58.99 38.78,-83.89 98.36,-160.17 152,-234.98 29.15,-40.62 54.19,-81.93 78.18,-125.74 6.72,-12.26 12.24,-24.84 17.15,-37.66 5.89,-15.27 10.82,-30.81 15.23,-46.54 4.31,-15.5 8.26,-31.11 12.32,-46.69 4.12,12.92 8.24,25.66 12.48,38.27 5.56,16.57 11.3,32.95 17.41,49.12 19.37,51.27 42.67,100.56 76.76,149.35 54.12,77.46 112.52,152.78 157.28,236.24 14.18,26.42 26.05,53.93 35.89,82.06 47.09,-158.41 139.85,-301.04 269.1,-414.46 19.13,-30.59 42.49,-55.34 71.51,-68.42 4.25,-1.9 8.79,0.53 9.31,4.82 100.67,-69.76 211.6,-110.48 331.19,-136.97 103.26,-22.85 250.03,-54.23 348.52,-0.14 100.42,55.21 66.91,162.18 50.58,259.16"
         style="fill:#028900;fill-opacity:1;fill-rule:nonzero;stroke:none"
         id="path84"
         inkscape:connector-curvature="0" /><path
         d="m 9394.53,583.492 c -87.37,38.438 -169.24,87.098 -261.81,113.317 -93.31,26.472 -190.67,39.64 -287.54,41.953 -3.83,0.039 -4.85,5.89 -0.94,6.84 99.24,23.211 200.57,15 298.33,-13.153 93.29,-26.847 193.66,-64.957 257.9,-141.258 3.73,-4.429 -0.85,-9.972 -5.94,-7.699 z m -4133.68,28.86 c -9.64,-1.84 -18.14,-6.082 -28.34,-5.473 -9.51,0.57 -19.32,0.191 -25.4,8.633 -1.98,2.777 -1.98,7.879 0,10.617 6.13,8.531 18.18,9.121 28.01,8.582 5.4,-0.281 11.96,-0.281 16.84,-2.742 2.92,-1.477 5.65,-2.02 8.89,-2.629 8.42,-1.66 8.42,-15.36 0,-16.988 z m 173.76,1167.718 c -13.77,-12.26 -21.03,-30.13 -33.98,-43.27 -12.75,-12.89 -30.1,5.9 -19.39,19.41 2.47,3.16 4.78,6.51 7.2,9.77 -10.93,-3.42 -21.67,-7.41 -32.64,-12.78 -11.04,-5.43 -22.54,0.6 -25.76,10.22 -10.38,-9.59 -20.7,-19.09 -32.3,-27.42 -9.84,-7.05 -23.42,6.8 -16.62,16.62 27.4,39.51 57.67,65.47 105.17,76.93 14.7,3.54 25.44,-11.98 21.05,-23.54 6.73,0.32 13.6,0.12 20.64,-0.96 11.06,-1.7 14.44,-18 6.63,-24.98 z m -500.87,-42.97 c -0.12,-0.1 -0.19,-0.15 -0.28,-0.23 -1.52,-0.61 -2.74,-1.16 -3.66,-1.53 -1.56,-0.86 -3.04,-1.79 -4.53,-2.81 -0.66,-0.66 -3.42,-2.98 -3.4,-2.98 -1.84,-1.71 -3.61,-3.48 -5.42,-5.27 -9.01,-9.1 -24.2,-9.03 -33.25,0 -8.79,8.77 -9.44,24.62 0,33.29 6.06,5.58 12.45,11.52 19.66,15.58 4.14,2.25 8.48,4.17 12.96,5.6 3.86,1.04 7.73,1.04 11.6,0.11 v 0 c -2.34,0.32 -2.43,0.37 0,0.08 0,0 0,-0.04 0,-0.08 0.24,-0.05 0.32,-0.07 0.57,-0.11 -0.19,0.06 -0.38,0.04 -0.57,0.11 0,-0.11 0,-0.2 0,-0.29 9.4,-0.23 17.92,-5.33 20.66,-15.34 2.9,-10.53 -3.33,-23.39 -14.34,-26.13 z M 9488.06,568.402 c -116.28,144.18 -271.81,203.379 -451.43,225.739 -227.24,28.379 -454.93,31.828 -683.37,19.23 -110.2,-6.031 -220.8,-22.402 -331.05,-10.762 -87.87,9.313 -169,44.082 -241.19,93.911 -78.15,53.902 -144.29,123.38 -208.41,192.97 -29.57,32.13 -58.19,60.6 -90.07,83.56 -44.57,181.25 -185.49,309.49 -361.57,382.2 -260.24,107.43 -554.02,99.56 -830.18,90.17 -138.68,-4.71 -277.41,-12.03 -416.2,-10.33 -73.41,0.92 -146.9,5.2 -219.18,18.2 -54.87,9.91 -107.09,28.02 -159.27,46.52 37.84,33.96 69.07,78.1 62.07,126.61 -7.39,51.34 -60.54,71.74 -105.8,78.86 -24.76,6.95 -50.95,6.24 -76.6,-0.22 -35.57,-5.6 -70.34,-18.49 -99.2,-38.06 -17.97,-12.22 -32.74,-27.31 -44.06,-45.28 -72.61,138.62 -317.56,98.68 -442.64,80.8 -96.59,-13.81 -426.92,-41.04 -386.97,-201.39 -54.11,4.75 -108.17,7.78 -162.3,-0.57 -9.24,-1.42 -9.1,-16.9 0,-18.47 48.25,-8.24 96.98,-11.78 145.81,-13.06 -80.58,-28.09 -156.75,-79.51 -224.03,-126.2 -7.39,-5.09 -1.04,-16.23 7.04,-12.02 74.86,38.51 164.59,94.8 255.83,122.11 22.72,-32.08 58.24,-57.26 88.65,-79.17 2.31,-1.67 4.72,-3.29 7.07,-4.97 -67.95,-91.29 -107.39,-207.69 -161.58,-304.85 -3.8,-6.88 5.8,-12 10.31,-6.02 68.79,91.97 109.68,201.77 175.07,294.22 7.31,-5.1 14.55,-10.18 21.91,-15.21 -54.79,-96.11 -96.74,-200.77 -109.28,-309.11 -0.87,-7.61 10.51,-8.25 12.71,-1.71 34.38,101.32 69.83,201.89 116.69,297.26 38.53,-25.95 77.47,-51.56 115.48,-78.11 111.75,-78.02 246.39,-93.68 377.14,-114.95 99.98,-16.27 206.96,-44.71 282,-116.45 38.34,-36.62 73.11,-76.67 110.01,-114.8 -43.51,-107.101 -76.78,-218.14 -88.93,-334.761 -1.18,-11.059 3.92,-19.258 11.49,-24.207 -5.41,-18.301 -11.75,-31.691 -19.21,-33.871 -45.84,-13.531 -92.65,-23.309 -138.99,-34.801 -76.14,-18.918 -176.23,-42.41 -218.88,-115.648 -10.74,-18.52 6.85,-40.711 27.25,-35.43 90.77,23.59 190.07,6.539 282.75,7.27 75.3,0.558 148.93,4.378 200.57,65.187 50.58,59.512 82.29,136.07 109.57,208.422 14.79,39.141 27.03,80.168 34.44,121.918 7.96,-6.25 15.84,-12.59 23.91,-18.68 232.2,-175.367 497.85,-336.129 787.73,-389.629 144.3,-26.629 304.55,-38.109 458.19,-20.281 -26.59,-23.41 -52.95,-59.719 -85.56,-60 -162.63,-1.32 -178.52,-27.637 -250.91,-56.508 -19.92,-7.929 -7.35,-17.441 8.99,-32.691 24.1,-22.5 134.47,-66.641 353.7,13.129 71.81,26.07 127.92,95.293 143.76,169.761 35.3,10.219 69.8,22.243 103.03,36.79 152.08,66.57 240.7,197.222 271.23,348.16 10.64,-16.801 21.36,-33.438 32.5,-49.61 118.84,-172.172 305.34,-228.668 505.96,-242.98 228.26,-16.27 457.93,17.75 685.57,29.262 131.62,6.687 266.3,12.457 395.51,-17.071 122.7,-28.019 238.99,-77.781 363.93,-96.968 19.74,-3.032 31.67,16.835 18.99,32.589"
         style="fill:#028900;fill-opacity:1;fill-rule:nonzero;stroke:none"
         id="path86"
         inkscape:connector-curvature="0" /><path
         d="m 13496.1,1401.91 c -38,59.69 -42.7,137.05 -65,203.32 -25.6,76.02 -72.3,140.92 -98.7,215.19 -0.5,1.38 1.5,2.04 2.2,0.94 40.9,-61.94 94.3,-139.01 111.4,-212 16.7,-70.79 27.6,-137.77 53.1,-206.18 0.7,-1.84 -2,-2.79 -3,-1.27 z M 13249.8,640 c -62.6,128.77 -72.6,301.051 -62.3,441.17 0.1,1.76 2.5,1.74 2.7,0 8.3,-81.08 16,-166.83 32.7,-246.549 13,-62.391 42.9,-126.601 41.2,-190.75 -0.2,-7.199 -10.8,-11.07 -14.3,-3.871 z m -878.5,1872.11 c 1,7.84 5.5,13.11 13.7,13.72 15.9,1.14 28.2,-17.02 32.7,-30.28 4.7,-13.62 4.4,-30.98 -6.8,-41.5 -3.9,-3.68 -9.3,-3.43 -13.2,0 -8.3,7.24 -12.7,17.97 -16.5,27.98 -3.5,9.03 -11.2,20.29 -9.9,30.08 z m 142.7,18.06 c 30.8,-6.8 52.2,-50.31 42.5,-78.58 -7,-20.34 -33.1,-24.34 -45,-5.87 -11.5,17.74 -28.8,49.24 -20.8,71.23 3.6,10.06 12.6,15.57 23.3,13.22 z m 183,-523.07 c -9.2,-8.47 -22.7,-2.34 -23.6,9.8 -5.1,68.23 0,130.31 -30.9,194.82 -26.1,54.3 -59.4,101.32 -91.8,151.62 -0.8,1.37 0.6,2.6 1.9,2.44 126,-16.96 250.4,-262.18 144.4,-358.68 z m -245.5,-195.02 c -100.5,29.52 -221.9,29.78 -285.7,121.41 37.9,-33.82 91.1,-52.01 138.9,-61.34 39.7,-7.71 97.8,-18.79 149.5,-17.16 50,-0.41 104.9,10.7 144,17.16 54,8.98 105.3,31.01 143.8,68.71 -62.4,-99 -187.5,-98.48 -290.5,-128.78 z m 324.6,-700.5 c -16.2,-107.29 -36.1,-222.06 -82.5,-321.088 -49.7,-106.191 -103.2,-197.172 -174.2,-290.152 -7.9,-10.301 -25.2,-1.27 -18,10.531 56.6,93.121 99.3,201.789 129,306.25 30.6,107.25 62.7,217.599 73.4,328.989 11.5,118.75 -2.5,235.23 -2.8,353.82 -0.3,107.81 -25.8,225.53 -1,331.4 0.7,3.34 5.8,3.25 6.7,0 15.3,-60.64 17.2,-124.65 26.2,-186.47 8.9,-61.55 25.1,-121.4 35,-182.75 18.8,-116.27 25.9,-233.49 8.2,-350.53 z m -708.3,-66.48 c -67.8,-10.34 -147.8,34.35 -204.8,66.41 -2.4,1.37 -0.3,4.78 2.1,3.65 33.2,-15.36 70.9,-30.85 106.5,-39.45 31.2,-7.5 66.5,-11.01 96.2,-22.75 3.2,-1.3 4.4,-7.18 0,-7.86 z m -5.1,953.11 c -41.3,9.89 -90.5,53.87 -114.8,87.69 -32.4,44.94 -50.8,89.34 -61.6,143.16 -0.1,0.31 0.4,0.55 0.5,0.23 20.8,-41.52 42.2,-86.2 69.6,-123.78 19.3,-26.48 35.4,-55.66 64.9,-72.75 15.6,-9.08 30.4,-18.24 44.1,-30.01 2.1,-1.85 -0.2,-5.13 -2.7,-4.54 z m 1011.6,415.64 c 11.4,55.69 36.9,108.56 45.5,164.74 8.1,52.56 7.2,103.97 18.5,156.02 0.6,2.64 4.9,2.07 4.7,-0.64 -3.9,-52.92 3.3,-107.2 -7.3,-159.75 -9.9,-49.62 -35.9,-92.92 -46.4,-141.96 -24.7,-115.43 -64.4,-245.32 -59.7,-363.91 0.6,-14.37 -22.9,-14.37 -22.3,0 2,51.19 21.4,103.81 32.1,153.78 13.6,63.55 22,128.09 34.9,191.72 z m 777.3,-1529.588 c -181.7,145.028 -293.4,346.758 -347.6,572.078 -19.2,80.01 -41.4,158.15 -70.4,235.25 -21.3,56.62 -48,133.15 -101.5,168.56 1,6.2 -0.4,12.95 -5.6,18.92 -2.3,2.65 -6.4,7.19 -7.1,9.72 -4.4,16.94 -24.6,20.26 -36.8,9.74 -8.6,-7.48 -24.3,-11.42 -34.3,-17.33 -7.9,-4.6 -14.3,-10.44 -19.7,-17.22 -71.6,-40.69 -149.3,-69.14 -223.9,-103.82 -46.6,-21.61 -88.1,-49.38 -130.3,-78.27 -14.2,-9.76 -29.6,-19.6 -44.5,-30.15 -9.6,61.91 -25.1,122.33 -39.3,183.3 -5.5,23.85 -16,47.54 -23.7,70.55 6.3,8.66 12.3,17.6 17.1,27.17 1,1.79 1.5,3.58 1.9,5.35 28.3,-6.54 57.4,2.94 85.6,21.88 40.2,6.91 78.9,29.19 106.3,58.91 4.9,-6.83 14.2,-10.34 28.9,-12.17 6.8,-0.85 16.2,4.66 18.9,10.88 25.8,57.91 35.2,122.24 47.1,184.12 10.4,53.87 25.6,110.48 28.8,166.47 2.7,19.78 5.3,40.03 8.7,60.96 4.9,30.31 18.7,57.06 26.4,86.67 7.6,29.28 9.8,61.37 14.3,91.31 7.9,51.85 19.3,103.45 13.9,155.38 29.5,21.43 67.6,42.17 97.7,60.55 44,26.89 91.1,50.54 140.1,66.3 6.8,2.18 4,12.62 -3,10.76 -64.4,-17.33 -126.7,-47.54 -190.9,-62.86 -28.2,-6.7 -52.3,-28.03 -80.8,-35.87 -16.9,-4.67 -23.8,-24.56 -28.5,-39.54 -40.6,-130.56 -25,-272.83 -57.2,-404.47 -17.7,-72.45 -64.1,-144.63 -104.7,-206.22 -24.4,-36.97 -52.3,-71.29 -84.1,-102.1 -20.7,-20.12 -41.8,-28.83 -65.2,-38.4 49.9,134.72 -63.6,319.71 -189,384.35 8.1,15.26 12.2,32.93 12.3,49.86 0.4,37.24 -22,88.48 -55.6,120.42 32,52.78 58.1,111.42 89.7,161.63 63.9,101.5 149.5,183.2 261.7,228.3 170.2,68.37 369.8,70.32 486.7,230.21 1.1,1.56 -1.4,3.38 -2.6,2.01 -153.4,-162.1 -378.1,-143.66 -566.8,-235.08 -85,-41.2 -151.3,-113.74 -205.3,-189.28 -36.4,-50.79 -76.1,-110.62 -105.6,-171.76 -3.2,1 -6.5,1.93 -9.9,2.51 26.4,51.22 46.6,108.29 66.7,157.56 34.1,83.59 76,188.65 64.8,280.54 -0.8,6.47 -9.3,8.14 -11.6,1.55 -28.8,-83.1 -39.3,-171.38 -70.5,-254.79 -28.6,-76.21 -81,-154.46 -101.8,-234.55 -19.2,73.11 -65.8,145.9 -93.7,214.23 -36.6,89.79 -47.2,184.86 -78.5,275.11 -2.3,6.59 -10.8,4.92 -11.5,-1.55 -11.4,-92.66 31.5,-195.9 64.7,-280.54 19.3,-49.09 39.8,-106.2 66.3,-157.34 -3.5,-0.57 -6.9,-1.53 -10.2,-2.57 -27.3,55.21 -62.9,108.73 -94.7,156.81 -52.1,78.85 -117.5,146.16 -198.7,195.07 -86.1,51.91 -188.3,66.57 -284.2,89.25 -112.7,26.66 -218.3,69.1 -299.3,154.83 -1.3,1.37 -3.8,-0.45 -2.7,-2.01 117.5,-160.72 316.6,-160.02 486.7,-230.21 107.4,-44.35 186.9,-118.05 251.9,-213.3 37,-54.24 64.4,-118.92 99.3,-176.64 -32.6,-32.09 -53.6,-83.49 -55.4,-120.41 -1,-18.13 3.9,-35.42 12.9,-50.35 -70.1,-37.85 -129.8,-114.65 -165.5,-178.37 -35,-62.65 -44.1,-139.29 -21.1,-206.82 -20.7,8.18 -39.9,15.31 -58.9,31.29 -33.1,27.76 -60.1,63.12 -85,98.19 -45.2,63.87 -93.6,142.14 -113.1,218.57 -7.3,28.22 -14,56.54 -19.3,85.17 -5.8,31.35 1.6,61.52 -3.2,93.1 -9.9,65.54 -8.6,142.1 -28.1,205.05 -19.9,63.88 -50.2,66.79 -110.6,94.33 -61.7,28.1 -130.7,47.5 -196.2,65.09 -7,1.86 -9.8,-8.58 -3,-10.76 43.1,-13.86 79.8,-35.94 120.1,-55.92 35.4,-17.58 83.4,-45.59 117.7,-70.84 -4.6,-44.66 3.9,-87.51 10.5,-132.68 4.4,-30.48 9.2,-60.91 14,-91.33 6.1,-38.33 23.9,-71.61 30.1,-109.44 3.5,-21.11 6.2,-41.32 9,-60.99 3.1,-48.72 15.4,-97.54 24.4,-144.81 13.1,-68.8 22.6,-141.38 51.2,-205.75 2.8,-6.22 12.1,-11.73 18.9,-10.88 14.2,1.76 23.4,5.01 28.5,11.4 26.7,-29.89 66.6,-51.28 106.7,-57.98 28.3,-18.92 57.4,-28.44 85.6,-22.01 0.4,-1.78 1,-3.56 1.9,-5.38 4.8,-9.44 10.6,-18.24 16.8,-26.78 -6.6,-18.08 -15.3,-36.6 -19.8,-55.29 -14.3,-59.33 -28.7,-118.53 -39.6,-178.6 -1,-5.56 -1.8,-11.12 -2.7,-16.68 -47.8,38.2 -107.5,70.32 -155.6,95.11 -80,41.22 -165.7,69.56 -244.1,113.83 -5.4,6.54 -11.6,12.03 -19.3,16.85 -10.1,6.34 -25.5,9.72 -34.3,17.33 -12.2,10.52 -32.4,7.2 -36.9,-9.74 -0.6,-2.53 -4.7,-7.07 -7,-9.72 -5.2,-5.97 -6.6,-12.7 -5.6,-18.92 -50.6,-33.51 -74.7,-102.71 -96.5,-155.88 -31.6,-77.58 -54.5,-158.43 -73.5,-239.9 -53.2,-228.26 -165.7,-433.38 -349.5,-580.108 -5.1,-4.051 0.4,-12.832 6.4,-10.832 209.9,71.172 306.3,311.67 380.2,499.61 28.5,72.29 53.1,145.91 77.5,219.63 18.8,56.81 43.3,173.08 99.2,206.39 3,1.79 5.7,4.03 8.1,6.53 87.7,-52.38 185.6,-84.54 276.2,-131.24 46.2,-23.78 106,-76.74 164.6,-87.77 -13.8,-109.22 -17.6,-219.56 -18.3,-329.6 -0.4,-49.85 3.8,-100.2 10.3,-150.5 -45.8,7.28 -90.5,21.58 -134.6,36.05 -34.7,11.37 -103.9,39.85 -151.4,35.62 -1.8,0.85 -3.6,1.69 -5.4,2.5 -2.6,6.48 -7.7,12.11 -15.5,14.88 -8.5,3.05 -17.1,6.07 -25.6,9.1 -11.7,4.18 -21.7,-1.31 -27.4,-10.07 -12.6,-6.75 -19.3,-23.98 -10.8,-36.65 2.2,-3.14 4.3,-6.58 6.5,-10.03 -1.3,-70.92 -4.3,-141.74 -10.2,-212.4 -9.4,-25.238 -13.1,-54.57 -18.2,-79.351 -9.9,-48.07 -19.4,-96.25 -28.9,-144.438 -24.6,-125.562 -67.2,-265.351 11.2,-379.992 67.7,-98.918 142.9,-196.269 227.5,-281.5701 6.2,-6.2305 18.1,0.0195 15.1,8.793 -24.7,73.5001 -74.8,133.9301 -122.7,193.5081 -42.3,52.66 -68.7,101.98 -81.6,162.871 35.1,-79.352 90.3,-151.481 152,-205.211 0.9,-0.789 2.1,0.211 1.6,1.289 -28.8,65.703 -71.9,122.742 -104.9,186.269 -30.5,58.852 -46.7,120.434 -49.8,184.743 10.9,69.781 31.4,140.339 44.1,205.582 9.8,50.476 20.2,102.968 18.5,154.507 -1.7,49.399 1.3,107.33 13.9,158.31 21.7,-5.48 45,-5.06 68.4,-9.92 37.2,-7.81 73.5,-21.26 109.8,-32.82 43.9,-14.05 86.1,-23.44 128.7,-20.69 7.5,-44.348 16.4,-88.329 25.3,-131.399 29.3,-141.711 142.1,-581.691 360.4,-494.941 215.1,-85.411 326.8,341.722 357.6,482.339 10.4,47.313 20,95.512 27.9,144.081 42.6,-2.59 84.5,7.03 128.9,20.61 36.6,11.18 72.6,23.54 109.8,32.82 23.5,5.88 46.7,4.91 68.4,10.13 23.7,-93.26 12,-194.32 28,-288.848 13.7,-80.211 36.3,-161.3 47.9,-242.75 -12.9,-134.101 -99.2,-232.75 -154.2,-358.023 -0.5,-1.078 0.7,-2.078 1.6,-1.289 68.1,59.262 123,135.859 156.4,220.402 -9.2,-61.269 -36.5,-114.703 -76,-165.512 -50.4,-64.66 -106.1,-126.929 -132.7,-206.0581 -3,-8.7735 8.9,-15.0235 15.1,-8.793 82.1,82.8831 168.1,180.5001 227.5,281.5701 72.2,122.75 37.2,246.813 11.2,379.992 -7.9,40.211 -15.6,80.43 -23.9,120.508 -6.7,32.383 -10.6,72.11 -23.6,104.68 -6,70.111 -8.6,140.561 -9.8,210.921 2.2,3.46 4.3,6.93 6.5,10.11 8,11.95 2.3,29.18 -9.5,36.11 -0.4,0.22 -0.8,0.31 -1.3,0.54 -5.6,8.76 -15.7,14.25 -27.4,10.07 -8.5,-3.03 -17,-6.05 -25.6,-9.1 -7.7,-2.77 -12.9,-8.4 -15.5,-14.88 -1.8,-0.81 -3.6,-1.63 -5.4,-2.5 -47.5,4.25 -116.5,-24.36 -151.4,-35.62 -44.3,-14.32 -89.1,-28.72 -135,-36.05 6.1,48.42 10,96.96 10.7,145.12 1.7,111.79 -4.7,223.96 -18.7,334.96 58.9,10.76 119.6,63.28 165,87.79 89.9,48.47 188.3,78.96 276.2,131.27 2.4,-2.53 5.1,-4.77 8.1,-6.56 53.2,-31.7 76.2,-139.37 94.8,-193.24 24.9,-72.52 49.1,-145.03 75.8,-216.95 71.6,-192.6 173.1,-443.171 386.4,-515.44 5.9,-2 11.4,6.781 6.3,10.832"
         style="fill:#028900;fill-opacity:1;fill-rule:nonzero;stroke:none"
         id="path88"
         inkscape:connector-curvature="0" /><path
         d="M 3056.85,827.621 1023.5,2860.97 c 252.04,214.95 577.95,344.42 935.35,344.51 398.85,-0.09 758.43,-161.18 1020.01,-422.46 261.28,-261.55 422.39,-621.15 422.46,-1020 -0.04,-357.43 -129.54,-683.3 -344.47,-935.399 z m -1098,-507.031 c -398.77,0.07 -758.39,161.199 -1019.924,422.43 -261.293,261.59 -422.418,621.16 -422.504,1020 0.066,324.65 106.832,623.27 287.496,864.21 L 2823.07,608.039 C 2582.15,427.43 2283.52,320.66 1958.85,320.59 Z m 0,3205.46 C 1513.36,3526 1106.58,3360.7 796.238,3088.23 715.805,3017.6 641.844,2939.78 575.375,2855.78 337.781,2555.38 195.902,2175.8 195.863,1763.02 195.977,789.27 985.133,0.140625 1958.85,0 c 973.81,0.140625 1762.96,789.27 1763.08,1763.02 -0.12,973.74 -789.27,1762.9 -1763.08,1763.03"
         style="fill:#ec1f23;fill-opacity:1;fill-rule:nonzero;stroke:none"
         id="path90"
         inkscape:connector-curvature="0" /><path
         d="m 10284.6,2459.88 c -61.5,74.82 -100.9,155.26 -132.8,240.48 35.9,-157.08 59.5,-317.58 95.4,-474.34 33,-143.71 75.7,-284.86 136.1,-418.54 28.4,-7.02 57.3,-12.69 87.1,-16.34 58.5,-7.17 118.1,-9.48 176.9,-15.33 -18.2,114.01 -34.4,228.64 -84.8,333.32 -67,139.11 -181.8,233.76 -277.9,350.75"
         style="fill:#028900;fill-opacity:1;fill-rule:nonzero;stroke:none"
         id="path92"
         inkscape:connector-curvature="0" /><path
         d="m 8445.38,2691.8 c -31.3,-82.86 -70.61,-161.09 -130.75,-231.92 -104.73,-123.35 -237.22,-229.85 -292.8,-387.22 -33.93,-96.07 -49.35,-196.68 -66.83,-296.59 18.84,2.61 36.23,5.28 50.65,6.81 64.64,6.89 128.75,8.07 192.65,21.54 6.12,1.28 12.2,2.8 18.27,4.28 62.85,139.07 106.72,286.34 139.53,435.89 32.48,147.91 55.72,299.04 89.28,447.21"
         style="fill:#028900;fill-opacity:1;fill-rule:nonzero;stroke:none"
         id="path94"
         inkscape:connector-curvature="0" /><path
         d="m 9441.45,3689.97 c -10.53,-137.87 -6.26,-297.32 36.56,-429.41 57.19,-176.5 157.83,-359.27 190.79,-547.48 8.05,175.21 30.08,350.64 19.93,525.98 -19.49,88.12 -37.61,176.58 -58.44,264.4 -24.88,104.77 -55.49,201.81 -98.34,300.7 -17.52,40.52 -33.85,81.01 -46.75,122.56 -6.73,-79.19 -37.73,-157.52 -43.75,-236.75"
         style="fill:#028900;fill-opacity:1;fill-rule:nonzero;stroke:none"
         id="path96"
         inkscape:connector-curvature="0" /><path
         d="m 8807.7,2915.06 c -18.84,-37.3 -40.38,-73.32 -60.71,-106.78 -44.61,-73.55 -92.82,-144.75 -141.42,-215.74 -100.24,-146.5 -195.35,-296.54 -252.77,-465.7 -0.76,-2.18 -4,-1.3 -3.45,0.96 41.07,169.19 135.45,314.97 232.31,457.3 51.84,76.19 105.74,151.23 153.68,229.99 35.38,58.11 63.58,119.11 94.44,178.96 18.06,63.56 36.14,127.1 51.13,191.57 23.23,100.09 43.39,200.87 66.67,300.96 20.15,86.58 39.82,173.4 74.69,255.44 23.56,55.35 49.06,109.82 68.69,166.18 -167.2,-198.37 -213.67,-479.68 -398.06,-663.46 -23.57,-53.19 -53.99,-101.59 -87.14,-151.24 -51.06,-76.46 -81.76,-154.5 -108.08,-242.16 -2.19,-7.35 -4.41,-14.68 -6.62,-21.99 -35.88,-209.55 -73.51,-420.79 -125.84,-626.72 -33.57,-132.2 -72.2,-264.84 -128.95,-388.89 60.98,16.63 119.83,41.02 177.92,65.38 32.49,13.62 64.92,27.09 97.66,39.75 153.66,298.59 200.17,630.13 285.14,956.16 3.49,13.36 7.04,26.7 10.71,40.03"
         style="fill:#028900;fill-opacity:1;fill-rule:nonzero;stroke:none"
         id="path98"
         inkscape:connector-curvature="0" /><path
         d="m 8257.02,2420.27 c 55.93,60.66 110.21,124.89 144.87,200.49 37.35,81.56 60.44,167.76 86.98,253.14 23.75,76.36 48.99,143.97 94.75,209.9 34.16,49.17 71.73,98.44 100.18,151.91 -0.27,-0.26 -0.48,-0.54 -0.78,-0.79 -102.28,-97.37 -222.95,-175.51 -340.03,-253.51 -3.91,-2.6 -7.7,-5.33 -11.6,-7.95 -65.25,-134.64 -129.47,-269.78 -194.44,-404.75 -78.77,-163.78 -169.01,-323.66 -272.37,-473.14 -49.81,-72.04 -189.67,-183.6 -118.13,-283.19 35.4,-49.31 113.71,-47.73 181.54,-39.77 20.31,111.25 45.62,221.96 84.58,325.65 48.3,128.54 153.8,223.7 244.45,322.01"
         style="fill:#028900;fill-opacity:1;fill-rule:nonzero;stroke:none"
         id="path100"
         inkscape:connector-curvature="0" /><path
         d="m 10107.8,2831.58 c -4,12.7 -7.9,25.43 -11.9,38.3 -27.4,88.13 -62,163.18 -113.38,239.88 -29.82,44.5 -56.14,88.51 -76.94,136.29 -179.17,189.7 -229.26,462.31 -396.86,661.54 20.03,-56.68 45.9,-111.36 69.04,-167.57 36.39,-88.48 57.81,-181.68 78.76,-274.82 36.21,-161.25 76.62,-320.37 117.49,-480.01 32,-62.39 61.57,-125.65 99.5,-185.64 46.02,-72.82 95.69,-143.14 143.99,-214.45 96.7,-142.6 191.2,-287.97 232.3,-457.3 0.6,-2.26 -2.7,-3.14 -3.4,-0.96 -59.5,175.13 -159.3,329.51 -263.26,480.95 -48.51,70.67 -97.68,141.72 -140.27,216.2 -16.97,29.63 -35.05,60.77 -51.37,92.84 3.59,-13.92 7.14,-27.83 10.69,-41.8 83.73,-327.77 131.92,-661.93 287.81,-961.52 91.5,-35.61 179.5,-75.44 273.2,-100.89 -60,130.07 -100,269.89 -133.8,408.46 -49,201.2 -86.6,406.31 -121.6,610.5"
         style="fill:#028900;fill-opacity:1;fill-rule:nonzero;stroke:none"
         id="path102"
         inkscape:connector-curvature="0" /><path
         d="m 9468.26,2747.61 c -13.05,81.13 -25.46,162.11 -35.25,243.69 -20.31,169.68 -25.73,332.54 -18.35,502.82 0.02,1.1 1.6,1.07 1.64,0 16.07,-315.44 76.2,-631.38 123.07,-943.29 19.4,-128.96 34.31,-260.51 83.08,-382.58 12.91,-32.33 28.55,-62.69 46.61,-91.52 2.92,-2.08 5.73,-4.37 8.67,-6.43 29.86,-20.68 61.05,-37.09 93.14,-50.95 -4.4,17.19 -8.95,34.42 -13.75,51.75 -31.97,116.09 -66.07,232.7 -80.99,352.51 -8.75,70.32 -10.99,140.7 -9.89,211.14 -12.31,101.1 -41.19,199.71 -77.61,295.13 -46,120.49 -107.74,240.62 -137.02,366.65 -28.73,123.65 -42.31,267.08 -27.43,393.44 11.95,101.92 60.79,209.9 41.46,313.11 -0.02,0.1 -0.11,0.18 -0.11,0.27 -0.13,0.3 -0.06,0.58 -0.13,0.83 -0.09,0.62 -0.22,1.22 -0.35,1.84 -40.57,-16.97 -84.03,-22.39 -123.2,1.57 -4.58,2.76 -3.07,11.41 2.94,10.77 76.97,-7.85 150.21,42.63 204.34,92.31 1.35,1.23 2.6,2.61 3.92,3.9 14.58,48.68 11.35,102.52 -17.72,157.25 -28.35,53.41 -73.86,106.7 -128.01,138.52 29.68,98.01 91.61,187.14 161.07,260.49 46.87,49.47 102.72,91.22 159.37,128.75 46.58,30.84 106.5,44.54 148.61,79.66 21.22,17.67 2.63,49.65 -21.02,50.65 -59.94,2.58 -129.14,-48.31 -176.65,-80.46 -62.09,-42 -113.56,-96.22 -160.18,-154.39 -65.64,-81.89 -111.56,-174.2 -130.36,-274.47 -4.77,2.23 -9.54,4.34 -14.43,6.25 -25.67,9.99 -54.33,12.85 -79.92,6.97 -22.21,5.55 -46.93,4.37 -69.96,-2.74 -8.7,-2.71 -17.18,-6.03 -25.45,-9.91 -19.11,99.87 -65.43,190.7 -130.2,273.9 -46.04,59.16 -98.99,110.95 -160.13,154.39 -46.21,32.8 -117.67,82.99 -176.67,80.46 -23.67,-1 -42.22,-32.98 -21.01,-50.65 37.77,-31.52 91.34,-45.05 134.13,-70.59 58.38,-34.84 111.55,-78.59 160.92,-125.1 76.2,-71.84 142.8,-168.89 173.82,-272.66 -50.74,-30.13 -92.2,-80.19 -121.63,-128.31 -31.74,-51.91 -38.66,-104 -28.1,-152.03 6.56,-6.87 13.32,-13.59 20.53,-19.88 55.86,-48.83 126.06,-100.29 204.38,-92.31 6.02,0.64 7.47,-8.01 2.89,-10.77 -38.52,-23.54 -82.29,-18.59 -123.18,-1.92 -0.16,-0.73 -0.32,-1.44 -0.46,-2.14 -0.02,-0.06 0,-0.13 -0.02,-0.18 0,0 -0.02,-0.02 -0.02,-0.04 -20.81,-110.69 39.48,-218.75 42.59,-328.97 3.65,-130.7 3.7,-271.57 -33.97,-397.99 -64.09,-214.89 -177.2,-412.27 -207.92,-634.07 1.31,-73.83 -1.26,-147.49 -11.58,-220.89 -17.68,-125.64 -52.14,-247.46 -86.05,-369.49 -2.56,-9.21 -4.89,-18.33 -7.3,-27.49 39.46,18.59 76.18,41.62 110.35,67.93 16.9,29.22 31.27,60.01 43.16,92.29 45.53,123.57 59.92,254.85 79.62,384.26 46.54,305.75 104.57,615.99 120.35,925.23 0.08,1.07 1.62,1.1 1.66,0 7.64,-177.52 1.16,-347.52 -21.03,-524.26 -10.27,-81.73 -23.12,-162.93 -36.14,-244.27 -11.61,-72.32 -9.92,-145.84 -14.28,-218.74 -6.64,-110.73 -13.79,-224.53 -47.83,-330.71 10.56,-7.27 20.9,-14.23 30.46,-20.5 40.81,-26.63 84.11,-47.64 129.01,-63.91 9.83,-3.54 19.73,-6.96 29.73,-10.04 12.66,-3.9 25.41,-7.44 38.33,-10.59 12.96,3.22 25.85,6.81 38.57,10.81 10.02,3.14 19.89,6.68 29.79,10.3 39.51,14.48 77.99,32.59 115.66,54.67 16.93,9.94 35.85,21.89 55.26,35.33 -32.79,104.23 -40.87,216.44 -46.01,324.64 -3.83,80.67 -4.96,160.84 -17.82,240.76"
         style="fill:#028900;fill-opacity:1;fill-rule:nonzero;stroke:none"
         id="path104"
         inkscape:connector-curvature="0" /><path
         d="m 8901.73,3199.91 c -3.13,-13.41 -6.12,-26.89 -9.39,-40.31 -23.52,-97.19 -53.94,-192.33 -78.62,-289.19 -81.95,-321.78 -135.6,-651.11 -287.08,-945.92 34.23,12.88 68.83,24.7 104.24,34.52 60.86,16.86 119.82,31.59 177.57,56.1 34.64,130.36 77.04,259.83 95.32,390.7 36.84,263.64 -22.32,529.29 -2.04,794.1"
         style="fill:#028900;fill-opacity:1;fill-rule:nonzero;stroke:none"
         id="path106"
         inkscape:connector-curvature="0" /><path
         d="m 9701.73,3181.09 c -1.46,6.45 -2.87,12.96 -4.34,19.41 20.58,-271.37 -44.59,-545.45 1.12,-814.61 21.2,-124.71 61.78,-249.76 94.54,-375.72 86.3,-33.89 178.07,-52.07 266.45,-85 5.3,-1.98 10.6,-4.04 15.9,-6.04 -153.56,296.55 -205.71,627.39 -289.93,951.28 -27.01,103.86 -59.47,206.06 -83.74,310.68"
         style="fill:#028900;fill-opacity:1;fill-rule:nonzero;stroke:none"
         id="path108"
         inkscape:connector-curvature="0" /><path
         d="m 10475.9,2517.1 c -71.4,142.67 -133.9,289.57 -203.6,433.1 -4.9,10.04 -9.9,20.03 -14.8,30.03 -6.2,4.16 -12.2,8.43 -18.4,12.56 -110.1,73.51 -229.3,147.44 -322.93,242.13 -0.37,0.35 -0.67,0.75 -1.05,1.1 31.61,-59.26 74.52,-112.91 111.48,-168.37 43.7,-65.61 66.7,-137.12 89.4,-212.32 25.4,-84.62 48.1,-172.87 89.6,-251.4 35.9,-68.07 84.1,-127.66 136.6,-183.66 84.1,-89.74 175,-177.46 229.4,-288.53 -38.3,104.39 -72.4,209.71 -87.5,321.45 -2.9,21.32 -5.6,42.64 -8.2,63.91"
         style="fill:#028900;fill-opacity:1;fill-rule:nonzero;stroke:none"
         id="path110"
         inkscape:connector-curvature="0" /><path
         d="m 9126.99,3280.56 c 19.27,74.96 27.93,151.61 30.41,228.91 2.23,69.16 8.4,142.19 -3.68,210.7 -11.76,66.68 -34.77,136.31 -40.09,205.51 -14.79,-47.28 -34.03,-93.18 -54.13,-139.16 -43.28,-99.16 -71.57,-199.08 -95.55,-304.46 -18.53,-81.47 -35.27,-163.42 -53.59,-244.96 -9.64,-172.67 13.17,-346.27 21.5,-519.3 36.74,193.03 146.68,374.2 195.13,562.76"
         style="fill:#028900;fill-opacity:1;fill-rule:nonzero;stroke:none"
         id="path112"
         inkscape:connector-curvature="0" /><path
         d="m 9494.94,3950.3 c 3.82,-13.22 8.02,-26.25 12.52,-39.17 0.6,1.71 2.62,2.96 4.12,1.17 86.61,-103.14 149.78,-220.84 207.5,-341.92 48.45,-101.57 98.25,-207.8 173.78,-292.65 -2.4,6.54 -4.78,13.06 -7.01,19.76 -0.39,1.17 1.45,1.7 1.85,0.52 2.99,-8.61 6.32,-17.06 9.91,-25.41 8.92,-9.78 18.12,-19.36 27.77,-28.48 95.12,-89.93 205.42,-161.31 316.32,-231.92 -66.5,132.97 -137.3,264.13 -205,396.37 -55.96,109.35 -115.27,218.1 -185.17,319.4 -51.23,41.01 -106.65,74.91 -165.76,103.86 -68.39,33.47 -144.56,59.72 -190.83,118.47"
         style="fill:#028900;fill-opacity:1;fill-rule:nonzero;stroke:none"
         id="path114"
         inkscape:connector-curvature="0" /><path
         d="m 9481.5,4008.3 c 0.59,-3 1.24,-6.03 1.72,-9.04 0.64,-3.23 1.2,-6.46 1.88,-9.65 62.19,-98.71 179.86,-119.36 276.98,-176.56 17.01,-9.99 34.33,-20.86 51.58,-32.51 -6.16,8.25 -12.2,16.56 -18.53,24.66 -46.67,59.5 -96.75,116.57 -153.36,166.87 -33.1,29.37 -67.55,53.86 -103.1,76.84 -17.6,-12.75 -37.25,-25.46 -57.93,-35.71 0.27,-1.65 0.5,-3.26 0.76,-4.9"
         style="fill:#028900;fill-opacity:1;fill-rule:nonzero;stroke:none"
         id="path116"
         inkscape:connector-curvature="0" /><path
         d="m 9114.15,3989.7 c 0.7,3.3 1.26,6.63 1.92,9.95 0.52,3.45 1.22,6.87 1.92,10.29 0.14,0.92 0.24,1.79 0.39,2.71 -23.38,11.34 -45.37,25.96 -64.4,40.61 -27.96,-17.66 -55.36,-36.35 -82.07,-58.15 -58.84,-48.04 -110.53,-104.14 -158.67,-162.72 -18.19,-22.05 -35.38,-44.8 -52.16,-67.86 25.22,18.2 50.99,34.52 76,48.52 97.29,54.38 215.55,79.14 277.07,176.65"
         style="fill:#028900;fill-opacity:1;fill-rule:nonzero;stroke:none"
         id="path118"
         inkscape:connector-curvature="0" /><path
         d="m 8686.5,3256.85 c 5.33,5.69 10.56,11.47 15.66,17.34 3.3,7.86 6.55,15.74 9.29,23.82 0.44,1.18 2.3,0.65 1.9,-0.52 -1.95,-5.97 -4.18,-11.78 -6.32,-17.58 78.09,91.38 128.37,199.04 180.9,306.91 56.11,115.23 116.91,226.9 199.7,325.48 1.57,1.9 3.91,0.4 4.24,-1.53 4.56,13.14 8.77,26.4 12.57,39.77 -46.23,-58.9 -122.56,-85.23 -191,-118.71 -64.92,-31.79 -128.25,-69.26 -182.45,-117.44 -4.72,-4.22 -9.26,-8.54 -13.77,-12.88 -48.77,-73.92 -92.39,-151.36 -134.13,-229.44 -82.92,-155.23 -161.28,-312.45 -238.07,-470.43 116.85,76.81 245.48,153.05 341.48,255.21"
         style="fill:#028900;fill-opacity:1;fill-rule:nonzero;stroke:none"
         id="path120"
         inkscape:connector-curvature="0" /><path
         d="m 10803.2,1995.57 c -108.2,137.99 -199.3,280.4 -282.7,435.11 -9.2,17.18 -18.3,34.56 -27.2,51.93 0.3,-2.5 0.6,-4.99 0.9,-7.48 21.8,-177.72 87.2,-335.24 139.6,-504.69 0.3,-1.02 -1.2,-1.44 -1.6,-0.44 -7,18.89 -14,37.7 -21.1,56.49 25.2,-82.05 44,-167.22 59.7,-252.82 42.4,-3.55 86.1,-4.42 126.6,8.73 102.3,33.16 51.1,155.44 5.8,213.17"
         style="fill:#028900;fill-opacity:1;fill-rule:nonzero;stroke:none"
         id="path122"
         inkscape:connector-curvature="0" /></g></g></svg>