<?xml version="1.0" encoding="UTF-8" standalone="no"?>
<!-- Generator: Adobe Illustrator 24.0.1, SVG Export Plug-In . SVG Version: 6.00 Build 0)  -->

<svg
   version="1.1"
   id="freesvg.org"
   x="0px"
   y="0px"
   viewBox="0 0 604.2222 256"
   style="enable-background:new 0 0 604.2222 256;"
   xml:space="preserve"
   sodipodi:docname="pest.svg"
   inkscape:version="1.2.1 (9c6d41e410, 2022-07-14, custom)"
   xmlns:inkscape="http://www.inkscape.org/namespaces/inkscape"
   xmlns:sodipodi="http://sodipodi.sourceforge.net/DTD/sodipodi-0.dtd"
   xmlns="http://www.w3.org/2000/svg"
   xmlns:svg="http://www.w3.org/2000/svg"><defs
   id="defs17" /><sodipodi:namedview
   id="namedview15"
   pagecolor="#ffffff"
   bordercolor="#000000"
   borderopacity="0.25"
   inkscape:showpageshadow="2"
   inkscape:pageopacity="0.0"
   inkscape:pagecheckerboard="0"
   inkscape:deskcolor="#d1d1d1"
   showgrid="false"
   inkscape:zoom="2.0290548"
   inkscape:cx="203.05021"
   inkscape:cy="128.13848"
   inkscape:window-width="1366"
   inkscape:window-height="738"
   inkscape:window-x="1024"
   inkscape:window-y="30"
   inkscape:window-maximized="1"
   inkscape:current-layer="freesvg.org" />
<style
   type="text/css"
   id="style2">
	.st0{fill:#B3B5B8;}
	.st1{fill:#FFFFFF;}
	.st2{fill:#010101;}
	.st3{fill:#4F4F51;}
	
		.st4{clip-path:url(#SVGID_2_);fill:none;stroke:#000000;stroke-width:0.8819;stroke-linecap:round;stroke-linejoin:round;stroke-miterlimit:10;}
	.st5{clip-path:url(#SVGID_2_);}
	
		.st6{clip-path:url(#SVGID_4_);fill:none;stroke:#000000;stroke-width:0.8818;stroke-linecap:round;stroke-linejoin:round;stroke-miterlimit:10;}
	.st7{clip-path:url(#SVGID_4_);}
	.st8{clip-path:url(#SVGID_6_);fill:none;stroke:#000000;stroke-width:0.8819;stroke-miterlimit:2;}
	.st9{clip-path:url(#SVGID_6_);}
	.st10{clip-path:url(#SVGID_8_);fill:none;stroke:#000000;stroke-width:0.8819;stroke-miterlimit:2;}
	.st11{clip-path:url(#SVGID_8_);}
	.st12{clip-path:url(#SVGID_10_);fill:none;stroke:#000000;stroke-width:0.8819;stroke-miterlimit:2;}
	.st13{clip-path:url(#SVGID_10_);}
	.st14{clip-path:url(#SVGID_12_);fill:none;stroke:#000000;stroke-width:0.8819;stroke-miterlimit:2;}
	.st15{clip-path:url(#SVGID_12_);}
	.st16{clip-path:url(#SVGID_14_);fill:none;stroke:#C15046;stroke-width:0.8819;stroke-miterlimit:2;}
	.st17{clip-path:url(#SVGID_14_);}
	.st18{clip-path:url(#SVGID_16_);fill-rule:evenodd;clip-rule:evenodd;}
	.st19{clip-path:url(#SVGID_16_);}
	.st20{clip-path:url(#SVGID_18_);fill:none;stroke:#000000;stroke-width:0.8819;stroke-miterlimit:2;}
	.st21{clip-path:url(#SVGID_18_);}
	.st22{clip-path:url(#SVGID_20_);fill:none;stroke:#000000;stroke-width:0.8818;stroke-miterlimit:2;}
	.st23{clip-path:url(#SVGID_20_);}
	.st24{clip-path:url(#SVGID_22_);fill:none;stroke:#000000;stroke-width:0.8818;stroke-miterlimit:2;}
	.st25{clip-path:url(#SVGID_22_);}
	.st26{clip-path:url(#SVGID_24_);fill:none;stroke:#000000;stroke-width:0.8819;stroke-miterlimit:2;}
	.st27{clip-path:url(#SVGID_24_);}
	.st28{clip-path:url(#SVGID_26_);fill:none;stroke:#000000;stroke-width:0.8819;stroke-miterlimit:2;}
	.st29{clip-path:url(#SVGID_26_);}
	
		.st30{clip-path:url(#SVGID_28_);fill:none;stroke:#000000;stroke-width:0.4409;stroke-linecap:round;stroke-linejoin:round;stroke-miterlimit:10;}
	.st31{clip-path:url(#SVGID_28_);}
	
		.st32{clip-path:url(#SVGID_30_);fill:none;stroke:#000000;stroke-width:0.4409;stroke-linecap:round;stroke-linejoin:round;stroke-miterlimit:10;}
	.st33{clip-path:url(#SVGID_30_);}
	
		.st34{clip-path:url(#SVGID_32_);fill:none;stroke:#000000;stroke-width:0.4409;stroke-linecap:round;stroke-linejoin:round;stroke-miterlimit:10;}
	.st35{clip-path:url(#SVGID_32_);}
	
		.st36{clip-path:url(#SVGID_34_);fill:none;stroke:#000000;stroke-width:0.4409;stroke-linecap:round;stroke-linejoin:round;stroke-miterlimit:10;}
	.st37{clip-path:url(#SVGID_34_);}
	
		.st38{clip-path:url(#SVGID_36_);fill:none;stroke:#000000;stroke-width:0.4407;stroke-linecap:round;stroke-linejoin:round;stroke-miterlimit:10;}
	.st39{clip-path:url(#SVGID_36_);}
	
		.st40{clip-path:url(#SVGID_38_);fill:none;stroke:#000000;stroke-width:0.4407;stroke-linecap:round;stroke-linejoin:round;stroke-miterlimit:10;}
	.st41{clip-path:url(#SVGID_38_);}
	.st42{clip-path:url(#SVGID_40_);fill:none;stroke:#000000;stroke-width:0.8819;stroke-miterlimit:2;}
	.st43{clip-path:url(#SVGID_40_);}
	.st44{clip-path:url(#SVGID_42_);fill:none;stroke:#000000;stroke-width:0.8819;stroke-miterlimit:2;}
	.st45{clip-path:url(#SVGID_42_);}
	.st46{clip-path:url(#SVGID_44_);fill:none;stroke:#000000;stroke-width:0.8819;stroke-miterlimit:2;}
	.st47{clip-path:url(#SVGID_44_);}
	.st48{clip-path:url(#SVGID_46_);fill:none;stroke:#000000;stroke-width:0.8819;stroke-miterlimit:2;}
	.st49{clip-path:url(#SVGID_46_);}
	
		.st50{clip-path:url(#SVGID_48_);fill:none;stroke:#000000;stroke-width:0.8819;stroke-linecap:round;stroke-linejoin:round;stroke-miterlimit:10;}
	.st51{clip-path:url(#SVGID_48_);}
	.st52{clip-path:url(#SVGID_50_);fill:none;stroke:#000000;stroke-width:0.8817;stroke-miterlimit:2;}
	.st53{clip-path:url(#SVGID_50_);}
	
		.st54{clip-path:url(#SVGID_52_);fill:none;stroke:#000000;stroke-width:0.8814;stroke-linecap:round;stroke-linejoin:round;stroke-miterlimit:10;}
	.st55{clip-path:url(#SVGID_54_);}
	.st56{clip-path:url(#SVGID_56_);}
	.st57{clip-path:url(#SVGID_58_);}
	.st58{clip-path:url(#SVGID_60_);}
	.st59{clip-path:url(#SVGID_62_);}
	.st60{clip-path:url(#SVGID_64_);}
	.st61{clip-path:url(#SVGID_66_);}
	.st62{clip-path:url(#SVGID_68_);}
	.st63{clip-path:url(#SVGID_70_);}
	.st64{clip-path:url(#SVGID_72_);}
	.st65{clip-path:url(#SVGID_74_);}
	.st66{clip-path:url(#SVGID_76_);}
	.st67{clip-path:url(#SVGID_78_);}
	.st68{clip-path:url(#SVGID_80_);}
	.st69{clip-path:url(#SVGID_82_);}
	.st70{clip-path:url(#SVGID_84_);}
	.st71{clip-path:url(#SVGID_86_);}
	.st72{clip-path:url(#SVGID_88_);}
	.st73{clip-path:url(#SVGID_90_);}
	.st74{clip-path:url(#SVGID_92_);}
	.st75{clip-path:url(#SVGID_94_);}
	.st76{clip-path:url(#SVGID_96_);}
	.st77{clip-path:url(#SVGID_98_);}
	.st78{clip-path:url(#SVGID_100_);}
	.st79{fill:none;stroke:#000000;stroke-width:0.8819;stroke-linecap:round;stroke-linejoin:round;stroke-miterlimit:10;}
	.st80{clip-path:url(#SVGID_102_);}
	
		.st81{clip-path:url(#SVGID_104_);fill:none;stroke:#000000;stroke-width:0.8814;stroke-linecap:round;stroke-linejoin:round;stroke-miterlimit:10;}
	.st82{fill:#9D9FA2;}
	.st83{fill:#636466;}
</style>
<path
   class="st0"
   d="M120.6597,182.4167c-7.3542-1.7083-11.5765-3.4898-23.327-5.9835c-11.0858-2.2368-26.3189-3.735-38.8647-3.415  c-14.1983,0.3622-24.9547,3.0532-33.5385,7.6395c-10.5963,5.6615-17.8821,14.2112-19.1591,22.0789  c-1.0434,6.4286,1.9247,12.402,5.8451,17.1859c9.3269,11.3815,24.0432,16.0309,43.8841,16.9716  c11.5116,0.5458,24.7483-0.157,36.2884-2.5051c12.4399-2.5312,22.9084-6.9744,33.009-10.6846l23.9895-3.2238  c18.7285,9.3779,48.8191,18.8949,62.5017,20.7699c19.9219,2.7285,40.5361,4.9463,55.2768,5.8067  c0.8804,0.0498,3.2549-0.4834,4.0914-0.4434c5.3295,0.2637,8.2382,0.9063,11.394,0.7178c5.6528-0.3389,7.6025-1.3203,2.8999-1.7334  c-1.2852-0.1123-3.0273-0.5264-4.937-1.0957c3.9429-0.2041,12.4399-0.836,12.8755-0.836c0.5576,0,2.709,0.2383,3.4267-0.4785  c0.7168-0.7177-2.3305-0.9765-8.4668-1.2949c-4.9985-0.2598-4.4858-0.2422-6.8808-0.6152c1.4106-0.7559,3.2837-1.6182,4.4453-1.8887  c1.2554-0.29,0.6587-0.6641-1.8526-0.5449c-2.5102,0.1201-4.4814-0.2383-4.8403-0.2383c-0.2187,0-7.207,0.7764-12.6372,1.3828  c-8.9946-1.1943-20.0312-3.331-21.3257-10.0225c-0.748-3.8642,3.6865-3.3564,9.6944-4.1875  c0.7236,0.1885,1.4096,0.3291,1.6933,0.2754c0.7124-0.1328,9.7686,0.5987,18.2554,0.2393c1.4971-0.0625,2.5786-0.1074,3.3726-0.1416  c4.103,0.8184,10.8627,2.1523,13.2783,1.8594c2.6211-0.3164,6.9717,0.8652,7.7002,0.8828c0.729,0.0176,1.603-0.3272-0.2652-1.5254  c-1.2417-0.7949-2.7295-1.3516-5.1679-2.0567c4.8911,0.0557,9.3715,0.1836,9.3715,0.1836s1.5948-1.2343-1.5146-1.831  c-0.7544-0.1455-1.8867-0.5332-3.1626-1.0332c1.9297-0.0469,3.8257-0.083,5.0859-0.083c2.6402,0,7.003-0.5586,7.7207-0.6875  c0.7159-0.1289,1.1148-0.1094-0.9575-0.9063c-2.0713-0.7968-3.7202,0.0323-9.2978-0.2842  c-5.5772-0.3193-8.7715-1.8085-11.9385-2.2666l-17.7481-1.0712c0.438-0.5176,0.8716-1.0538,1.2925-1.6377  c0.0142-0.0196,0.0279-0.043,0.042-0.0635c21.8721,1.2558,97.4546-14.9093,97.4546-14.9093s13.4157-0.7343,16.9221,4.8429  c3.5054,5.5791,16.7334,21.874,16.0176,31.0781c-0.2769,3.5537,2.5092,7.7295,3.3457,8.209  c0.8374,0.4775,2.3022,3.5058,8.9653,3.3857c1.5093-0.0263,2.9341,0.0401,4.3315,0.1455l-0.5239,0.0674  c4.9024,1.2022,10.8281,2.8721,12.6631,3.1231c1.8359,0.25,6.7642,0.3789,6.7642,0.3789s3.0449,0.3427,2.5332-0.3301  c-0.2798-0.3692-2.9185-1.7276-5.4204-2.8936c7.4296-0.8828,8.6186-0.3613,10.0136-0.0127  c1.4346,0.3594,5.8565-0.4785,5.8565-1.2041c0-0.7275-4.4151-0.3515-7.0518-1.5459c-0.5674-0.2558-1.1523-0.5175-1.7475-0.7744  c2.9121-0.5273,5.0947-0.5986,5.0947-0.5986s1.7334-0.8379,1.4941-0.8965c-0.2392-0.0615-3.228-0.5381-6.3344-0.7773  c-2.5372-0.1954-12.8716-1.1368-16.7505-1.4776c-4.3619-2.2763-8.6621-6.2256-9.1289-9.3408  c-0.7173-4.7803-2.6294-19.8408,0-31.0781c0.0283-0.1211,0.0659-0.251,0.0952-0.374c1.7544,8.4521,3.2881,16.4169,3.4907,18.5419  c0.478,5.0206,4.3828,7.3331,4.3828,7.3331s2.2158,0.5605,4.9697,1.2333c4.5039,1.3565,13.5708,4.002,15.5694,4.459  c2.3305,0.5342,0.9575,0.7217,2.6904,1.2598c1.7324,0.5381,1.6128,0.1191,1.2612-0.4785c-0.1484-0.2539-1.1953-1.335-2.3496-2.4971  c2.2173,0.7666,4.1895,1.4551,5.3311,1.4824c2.5693,0.0586,1.375,0.1182,2.5102,0c1.1348-0.1201,3.5655,0.3965,4.2832,0.6358  c0.7178,0.2402,1.6939-0.2578,1.2754-0.4365c-0.3149-0.1358-4.0542-2.1475-6.2944-3.4034c3.5166,0.2295,8.1997,0.1612,8.1997,0.1612  l0.9683-0.6573c0,0-12.1973-3.832-13.6314-4.0712c-1.4355-0.2383-9.563-6.4532-11.2368-8.127  c-1.6738-1.6738-3.5859-15.0615-2.1519-21.2764c0.9493-4.1123,0.6426-18.1562,0.3272-27.1972  c19.9585-27.0738,47.7032-51.0902,49.8042-53.0479c0.9657-0.8999,3.8918-3.0423,3.8918-3.0423  c0.4979-0.5612-1.3044-1.5734,11.0746-6.0783c3.8677-5.1255,8.2617-9.8569,13.1064-14.0796  c3.0547-2.6709,6.2823-5.1426,9.6465-7.4155c3.3711-2.2695,6.8482-4.355,10.565-6.0947l0.0044-0.001  c0.2402-0.1099,0.5244-0.0044,0.6323,0.2358c0.1099,0.2398,0.0049,0.5244-0.2359,0.6328l-0.0224,0.0113  c-3.6235,1.6523-7.1255,3.6997-10.4785,5.9111c-3.3579,2.2197-6.584,4.6411-9.6416,7.2637  c-4.6436,3.9663-8.8877,8.3965-12.6582,13.2026c3.1142-1.1313,5.6655-2.0434,7.2031-2.6118  c2.2475-0.8335,4.9546-1.564,7.6304-2.2666c-2.1304,4.2524-3.8145,8.6997-5.2129,13.2153  c-1.7071,5.5396-2.9922,11.1919-3.9429,16.8936c-0.9414,5.7016-1.5693,11.4575-1.7329,17.2261  c0.3237-5.7608,1.1089-11.4864,2.2036-17.1421c1.105-5.6524,2.5386-11.2412,4.3823-16.6822  c1.6416-4.8271,3.6074-9.5551,6.0869-13.9785c5.5095-1.4451,9.4769-3.131,10.4211-3.7212c0.1128,2.6035,1.0851,1.1966,1.1683,1.127  c0.3372-0.2823,0.9606-1.0052,0.9606-1.0052l0.2566-0.0384c-0.0513,0.1245-0.8217,1.9924-0.8729,2.1164  c-1.9057,4.6509-3.7036,9.3438-5.395,14.0738c-1.6704,4.7378-3.2065,9.5215-4.5967,14.3457  c-1.3393,4.8393-2.5083,9.7256-3.3808,14.6645c1.0298-4.9101,2.3506-9.7466,3.8384-14.5278  c1.539-4.7671,3.2207-9.4824,5.0346-14.1489c1.835-4.6582,3.7739-9.2745,5.8184-13.8409c1.436-3.2016,2.9375-6.3764,4.4761-9.5268  c0.7348-0.5386,1.519-1.064,2.3418-1.5786l0.7587,6.0937c0.5611,4.7681,1.0479,9.5449,1.4019,14.3321  c0.3506,4.7871,0.5771,9.5854,0.5421,14.3862c-0.062,4.791-0.3013,9.6186-1.3931,14.3091  c1.2476-4.6534,1.6514-9.4932,1.8697-14.2984c0.1962-4.8149,0.1289-9.6382-0.0635-14.4507  c-0.1963-4.8154-0.5254-9.6235-0.9292-14.4233l-0.627-6.8901c1.3667-0.8013,2.8032-1.5909,4.2559-2.3926  c0.9092,1.7451,1.7168,3.5708,2.4263,5.4028c1.3359,3.4888,2.3164,7.1167,3.0561,10.7979c0.3169,1.8506,0.6675,3.7002,0.8418,5.5742  c0.2603,1.8662,0.3511,3.748,0.4624,5.6299c0.1348,1.8818,0.0576,3.7695,0.0952,5.6582c-0.0503,1.8867-0.1733,3.772-0.2573,5.6616  c0.1636-1.8818,0.3662-3.7642,0.4976-5.6528c0.0395-1.8907,0.1977-3.7852,0.144-5.6792c-0.0337-1.8951-0.0459-3.794-0.2285-5.6861  c-0.0962-1.8984-0.3706-3.7793-0.6123-5.6679c-0.5923-3.7574-1.4322-7.4908-2.6489-11.1216  c-0.6719-1.9527-1.4092-3.8682-2.2906-5.7398c0.9898-0.5532,1.9795-1.1152,2.9502-1.6963c1.169,1.6568,2.3208,3.3296,3.4404,5.0215  c1.7955,2.7271,3.5367,5.4932,5.1631,8.3272c1.6245,2.833,3.1958,5.7036,4.5464,8.6806c1.3521,2.9722,2.5816,6.0171,3.3594,9.2071  c-0.6221-3.2246-1.707-6.3433-2.9203-9.3965c-1.213-3.0581-2.6514-6.0195-4.146-8.9497c-1.4976-2.9297-3.1118-5.7969-4.7871-8.6304  c-1.0342-1.7407-2.0977-3.4599-3.1836-5.1699c0.5366-0.3403,1.061-0.6904,1.5762-1.0469c1.5424,1.0884,3.0561,2.2246,4.5273,3.3999  c3.2144,2.5864,6.2471,5.4043,9.0532,8.4361c2.7945,3.0473,5.2632,6.3828,7.416,9.9179c2.1163,3.5679,3.6831,7.4312,4.8077,11.4395  c-0.9688-4.044-2.3936-7.9947-4.3912-11.6748c-2.0327-3.646-4.4013-7.1192-7.1132-10.313  c-2.7242-3.1807-5.6895-6.1553-8.8531-8.9072c-1.3237-1.1407-2.6757-2.2388-4.0542-3.3082c1.1016-0.8398,2.125-1.7304,3.0396-2.6879  c0.7124,0.2031,1.4228,0.4096,2.1308,0.6313c3.1861,0.9956,6.3433,2.1187,9.3926,3.4902c3.042,1.3789,6.0469,2.8814,8.8242,4.7549  c2.7696,1.8736,5.3746,4.023,7.5435,6.6079c-2.0425-2.6836-4.5625-4.9765-7.2695-6.999c-2.7144-2.0254-5.6768-3.688-8.6905-5.228  c-3.0219-1.5352-6.1606-2.8242-9.3452-3.9859c-0.4922-0.1801-0.9892-0.3461-1.4853-0.5175  c0.6054-0.7554,1.1406-1.5528,1.5913-2.3975c3.3203,0.1362,6.6347,0.4893,9.8994,1.1206c3.269,0.6494,6.5078,1.565,9.5317,2.9912  c3.0318,1.3926,5.8321,3.3672,7.9869,5.9639c-2.0279-2.6953-4.7647-4.8359-7.773-6.3916c-3.0015-1.5933-6.248-2.6802-9.5395-3.4976  c-3.1148-0.7578-6.2862-1.2549-9.4766-1.5605c0.1992-0.4995,0.3638-1.0176,0.5024-1.5498c2.4117-0.3364,4.8926-0.52,7.3496-0.5811  c2.9346-0.0635,5.8755,0.0674,8.7974,0.4102c2.9141,0.3887,5.7959,1.021,8.5967,1.9443c2.7798,0.9859,5.4267,2.333,7.854,4.0508  c-2.3277-1.8428-4.9229-3.3501-7.6851-4.4985c-2.7817-1.0865-5.6758-1.8887-8.6211-2.4419  c-2.9511-0.5078-5.9389-0.8033-8.936-0.8985c-2.3369-0.0664-4.6563-0.0361-7.0029,0.1397c0.1079-0.958,0.1186-1.9688,0.0224-3.0371  c1.3589-0.6773,2.7935-1.2876,4.2276-1.8213c1.9668-0.7261,3.9902-1.3086,6.0478-1.7412c2.0576-0.4541,4.1612-0.6494,6.2715-0.7041  c2.1177-0.0581,4.2261,0.2226,6.314,0.6484c-2.0454-0.5786-4.1548-1.0244-6.3018-1.1265c-2.1406-0.1049-4.3066-0.0673-6.4419,0.2398  c-2.1362,0.2832-4.2558,0.7256-6.3354,1.3208c-1.3677,0.3974-2.7051,0.8467-4.0362,1.3691  c-0.2148-1.1064-0.5381-2.269-0.9829-3.4961c-0.0385-0.0258-0.2368-0.1176-0.5615-0.2597c2.4023-1.5171,4.9648-2.8872,7.5669-4.0943  c3.188-1.4677,6.4932-2.6899,9.874-3.6577c3.3745-0.999,6.855-1.6323,10.3623-1.9765l2.6397-0.2105l2.6504-0.0103l1.3266-0.0014  l1.3213,0.1079l2.6485,0.2148l-2.6377-0.3335l-1.3223-0.1679l-1.3291-0.0596l-2.6651-0.1089l-2.6655,0.0923  c-3.5527,0.188-7.105,0.6694-10.5713,1.5293c-3.4721,0.8262-6.8882,1.9165-10.2031,3.2666  c-3.1211,1.2852-6.1372,2.7417-9.0767,4.5117c-0.8837-0.3774-1.9506-0.8315-3.1796-1.3569  c1.9863-1.5327,4.0405-2.9922,6.1386-4.3628c3.8599-2.522,7.9283-4.731,12.1621-6.5669c4.2432-1.8105,8.6763-3.21,13.2432-3.9541  c2.2837-0.3687,4.5957-0.542,6.9116-0.561c2.3189,0.0107,4.6304,0.2475,6.9199,0.6504c-2.2724-0.4815-4.5844-0.7979-6.9155-0.8897  c-2.3281-0.061-4.666,0.0342-6.9834,0.3267c-4.6372,0.5932-9.1743,1.8559-13.5371,3.5424  c-4.354,1.7124-8.5566,3.8116-12.5625,6.2364c-2.4687,1.497-4.8584,3.0957-7.185,4.8071c-1.126-0.4814-2.3384-1.0005-3.6192-1.5513  c1.0108-1.0874,2.0249-2.1733,3.0615-3.2334c2.7466-2.7841,5.5845-5.4843,8.5674-8.0146c2.9849-2.5244,6.0996-4.9165,9.4658-6.9063  c3.3477-1.9511,7.0162-3.7011,10.9849-3.747c-3.9731-0.1177-7.7651,1.497-11.2197,3.3305  c-3.4815,1.8721-6.7217,4.1582-9.8335,6.5801c-3.1138,2.4312-6.084,5.0361-8.9678,7.7319  c-1.2417,1.1709-2.4575,2.3633-3.6641,3.5669c-1.0629-0.458-2.1538-0.9292-3.2734-1.4165c0.8784-1.8335,1.8057-3.6513,2.7754-5.4384  c1.6406-2.9986,3.3975-5.9405,5.3564-8.7437c1.9517-2.8032,4.0933-5.4912,6.565-7.8535c2.4741-2.314,5.3246-4.4434,8.7226-5.1777  c-3.4326,0.5756-6.4321,2.5942-9.0439,4.8227c-2.6138,2.2774-4.9087,4.8994-7.0151,7.6445  c-2.1133,2.7452-4.0264,5.6368-5.8291,8.5923c-1.0835,1.7964-2.107,3.6231-3.1001,5.4712c-0.9214-0.4028-1.8526-0.813-2.7896-1.2251  c0.7993-1.999,1.6216-3.9912,2.4761-5.9643c2.1611-4.9566,4.4961-9.8418,7.1113-14.5743c2.6109-4.7324,5.4868-9.3335,8.8506-13.5688  c1.6919-2.1055,3.5049-4.1221,5.5107-5.938c2.003-1.8091,4.2168-3.4233,6.6973-4.5386c-2.5127,1.0415-4.7871,2.5972-6.855,4.3599  c-2.0713,1.7651-3.9565,3.7412-5.7217,5.8125c-3.5122,4.166-6.5449,8.7134-9.3125,13.3979  c-2.7724,4.6875-5.2666,9.5332-7.5869,14.4566c-0.916,1.956-1.7968,3.9228-2.6567,5.9014  c-1.7637-0.7813-3.5234-1.5708-5.2461-2.3526c0.1899-3.0224,0.2549-6.0552,0.1396-9.0845  c-0.1772-3.8125-0.5932-7.6464-1.7094-11.3139c-0.5576-1.8286-1.2862-3.6148-2.2993-5.2398  c-1.0069-1.6206-2.3267-3.0669-3.9366-4.084c1.5664,1.084,2.8072,2.5694,3.7315,4.2071c0.9292,1.6416,1.5718,3.4267,2.0434,5.2461  c0.9458,3.6489,1.1988,7.4404,1.2144,11.2036c-0.0098,2.8335-0.1777,5.665-0.4614,8.4844  c-8.3369-3.8116-9.0842-5.1695-17.0425-8.0862c-10.5754-3.8758-13.174-4.5341-26.9583-4.5417  c-1.2373-2.4536-8.0031-15.277-18.0338-16.4396c-9.7456-1.1279-9.7134,11.0254-8.5884,15.7075  c-0.9092,0.1699-1.7617,0.3472-2.5288,0.5303c3.9395,5.1211,1.5469,17.708-1.4687,19.2685  c3.5166-10.5346,2.7046-32.3857-18.0996-31.414c-20.8042,0.9702-7.1988,38.9448,10.5449,40.0478  c-11.8863,1.169-21.2583-16.5493-22.5083-17.6889c-7.2803,1.7734-6.232,11.0366-23.6831,12.6733  c-24.545,1.3291-116.7302-17.3726-162.6311-2.9009c-45.8999,14.4737-87.7951,41.0307-106.3364,102.216  c-2.151,7.0982-5.094,16.285-3.8611,27.9444L120.6597,182.4167z M112.1806,192.6667c1.1817,0.2108,5.9301,0.87,7.0833,1.0417  c-9.6327,4.719-26.5243,11.9286-39.9841,13.8626c-14.4378,2.0746-31.8148,0.6344-36.845-2.5433  c-5.853-3.6974,5.0103-9.747,17.6803-12.6097c8.1463-1.8406,17.0395-2.3638,25.0578-1.6292  c7.4438,0.6819,13.7211,0.4924,19.3826,1.0862L112.1806,192.6667z"
   id="path4"
   style="fill:#028900;fill-opacity:1" />
<path
   class="st1"
   d="M554.7095,69.5354c0.1275-0.8697-0.2329-1.7808-0.7583-2.5523c0.6675,0.6548,1.1602,1.564,1.1656,2.582  c0,1.0318-0.6709,1.9527-1.4532,2.5498c-0.4096,0.3081-0.8608,0.5386-1.3297,0.7168c-0.457,0.1724-0.9297,0.294-1.4018,0.3838  c-0.4839,0.084-0.9697,0.1187-1.458,0.1314c-0.5,0.0063-1.062-0.0528-1.5694-0.3472c-0.0605-0.0322-0.1088-0.0806-0.162-0.1211  c-0.4209-0.3066-0.6978-0.79-0.8051-1.2529c-0.1255-0.5318-0.1094-1.0532-0.0328-1.5459c0.1661-0.9859,0.5089-1.9009,0.9605-2.7471  c0.8994-1.6772,2.0918-3.2646,3.7295-4.2329c-0.7168,0.6089-1.314,1.3242-1.8203,2.0977c-0.5225,0.7592-0.9742,1.5688-1.3336,2.4096  c-0.3481,0.8418-0.6568,1.7071-0.7578,2.5777c-0.1143,0.8545,0.0166,1.7636,0.6469,2.1006  c0.6078,0.3627,1.6064,0.2573,2.4776,0.1523c0.8842-0.1196,1.743-0.3975,2.4907-0.8472  C554.0162,71.1237,554.6319,70.4113,554.7095,69.5354 M527.5333,95.6379c-1.1142-0.375-4.6812-0.4312-6.4576-0.3545  c0.3355-0.436,0.6827-0.8643,1.0342-1.2861c1.0928-0.104,4.1597-0.2056,5.3712-0.2906  C527.4962,94.2824,527.5128,94.9391,527.5333,95.6379 M512.5176,95.8659c-0.5542-0.3681,2.4722-1.0635,7.3404-1.6284  c-0.2842,0.3901-0.566,0.7842-0.8384,1.1826C515.8951,95.6882,512.9498,96.155,512.5176,95.8659 M483.2418,105.9924  c-0.8706,0.8584-1.5161,1.8984-2.2422,2.876c0.71-0.9873,1.3413-2.0425,2.1973-2.9156l1.2173-1.3672l1.313-1.2724  c0.8579-0.8701,1.7856-1.6611,2.7095-2.459c0.9077-0.8159,1.8628-1.5737,2.8198-2.3315c3.8213-3.0318,7.811-5.8511,11.895-8.521  c4.0918-2.6553,8.2705-5.1831,12.5479-7.5406c4.2968-2.3222,8.6176-4.6147,13.3629-6.123c0.0019-0.0015,0.0052-0.0025,0.0078-0.0025  c0.252-0.0747,0.519,0.0674,0.5947,0.3218c0.0757,0.252-0.0674,0.5181-0.3203,0.5938l-0.0361,0.0117  c-4.5811,1.3716-8.9707,3.5928-13.2681,5.8296c-4.2983,2.2763-8.5044,4.73-12.6309,7.3125  c-4.1176,2.5962-8.1435,5.3432-12.0058,8.3056c-0.9663,0.7403-1.9326,1.4825-2.8516,2.2803  c-0.9336,0.7808-1.8726,1.5567-2.7412,2.4082l-1.333,1.2495L483.2418,105.9924 M484.6929,89.7604  c-3.9629,3.0069-7.6519,6.6934-9.5181,11.4112c1.7896-4.7495,5.4375-8.5176,9.3735-11.6016  c4.0068-3.0635,8.4346-5.5342,12.999-7.6567c4.5679-2.1284,9.2896-3.9092,14.0786-5.4722  c4.7964-1.5498,9.6465-2.9018,14.5923-3.9668c0.001,0,0.0054-0.001,0.0068-0.0024c0.2593-0.0513,0.5103,0.1177,0.5616,0.3769  c0.0532,0.2598-0.1161,0.5098-0.375,0.562l-0.0117,0.002c-4.898,0.9736-9.7662,2.2466-14.5572,3.7124  c-4.791,1.4785-9.518,3.1782-14.0976,5.2236C493.169,84.3884,488.7281,86.7766,484.6929,89.7604 M275.4445,199.4444  c-0.3864-22.5136-13.8576-55.3404-34.5719-60.5889C267.8322,143.6092,280.6602,176.7902,275.4445,199.4444"
   id="path6" />
<path
   class="st3"
   d="M496.243,47.6849c-4.0533-0.2133-5.2641,0.4118-6.7041,1.7718c-0.7298,0.6892-2.1958,2.7204-1.6267,5.68  c0.4,2.08,1.1974,3.3216,2.5308,4.0149c1.4648,0.7617,2.9288,1.4933,6.6333,1.3667c3.12-0.1067,4.9829-0.7623,6.4667-1.1333  c1.4893-0.3724,3.6554-1.9767,3.7292-3.5282c0.08-1.68-1.5733-3.5733-2.4533-4.2933s-3.8718-2.4158-5.0426-2.8494  C496.8964,47.6473,496.243,47.6849,496.243,47.6849z"
   id="path8" />
<path
   class="st1"
   d="M501.0076,51.5743c-0.365-0.0192-0.474,0.0371-0.6036,0.1595c-0.0657,0.0621-0.1977,0.2449-0.1465,0.5114  c0.036,0.1873,0.1078,0.2991,0.2279,0.3615c0.1319,0.0686,0.2637,0.1345,0.5973,0.1231c0.2809-0.0096,0.4487-0.0686,0.5822-0.102  c0.1341-0.0335,0.3291-0.178,0.3358-0.3177c0.0072-0.1513-0.1417-0.3217-0.2209-0.3866s-0.3486-0.2175-0.454-0.2566  C501.0665,51.571,501.0076,51.5743,501.0076,51.5743z"
   id="path10" />
<path
   class="st1"
   d="M451.0835,44.331c-0.0773-4.5027-2.7715-11.0681-6.9144-12.1178  C449.5611,33.1639,452.1267,39.8001,451.0835,44.331"
   id="path12" />
</svg>
